<mxfile host="drawio-plugin" modified="2024-01-08T07:35:11.732Z" agent="5.0 (Windows NT 10.0; Win64; x64) AppleWebKit/537.36 (KHTML, like Gecko) Chrome/111.0.0.0 Safari/537.36" etag="JI0d3xINNlJN6ebEzZ4S" version="20.5.3" type="embed" pages="3"><diagram id="EKcr0HdU757LEizDHPSV" name="概念流程图"><mxGraphModel dx="1942" dy="472" grid="1" gridSize="10" guides="1" tooltips="1" connect="1" arrows="1" fold="1" page="1" pageScale="1" pageWidth="850" pageHeight="1100" math="0" shadow="0"><root><mxCell id="0"/><mxCell id="1" parent="0"/><mxCell id="A-JmJNQjyQuitz2-YDWL-1" value="用户1" style="shape=umlActor;verticalLabelPosition=bottom;verticalAlign=top;html=1;outlineConnect=0;" parent="1" vertex="1"><mxGeometry x="150" y="20" width="30" height="60" as="geometry"/></mxCell><mxCell id="A-JmJNQjyQuitz2-YDWL-2" value="用户2" style="shape=umlActor;verticalLabelPosition=bottom;verticalAlign=top;html=1;outlineConnect=0;" parent="1" vertex="1"><mxGeometry x="365" y="20" width="30" height="60" as="geometry"/></mxCell><mxCell id="A-JmJNQjyQuitz2-YDWL-5" value="浏览器_1" style="rounded=0;whiteSpace=wrap;html=1;" parent="1" vertex="1"><mxGeometry x="105" y="160" width="120" height="60" as="geometry"/></mxCell><mxCell id="A-JmJNQjyQuitz2-YDWL-8" value="浏览器_2" style="rounded=0;whiteSpace=wrap;html=1;" parent="1" vertex="1"><mxGeometry x="320" y="160" width="120" height="60" as="geometry"/></mxCell><mxCell id="A-JmJNQjyQuitz2-YDWL-9" value="浏览器_3" style="rounded=0;whiteSpace=wrap;html=1;" parent="1" vertex="1"><mxGeometry x="520" y="160" width="120" height="60" as="geometry"/></mxCell><mxCell id="A-JmJNQjyQuitz2-YDWL-10" value="用户3" style="shape=umlActor;verticalLabelPosition=bottom;verticalAlign=top;html=1;outlineConnect=0;" parent="1" vertex="1"><mxGeometry x="565" y="20" width="30" height="60" as="geometry"/></mxCell><mxCell id="A-JmJNQjyQuitz2-YDWL-14" value="&amp;nbsp;Web 前端 &amp;amp; Web 后端 机器-1" style="swimlane;whiteSpace=wrap;html=1;" parent="1" vertex="1"><mxGeometry x="30" y="400" width="740" height="240" as="geometry"><mxRectangle x="130" y="400" width="170" height="30" as="alternateBounds"/></mxGeometry></mxCell><mxCell id="A-JmJNQjyQuitz2-YDWL-18" value="Docker" style="swimlane;whiteSpace=wrap;html=1;" parent="A-JmJNQjyQuitz2-YDWL-14" vertex="1"><mxGeometry x="20" y="40" width="700" height="200" as="geometry"><mxRectangle x="20" y="40" width="80" height="30" as="alternateBounds"/></mxGeometry></mxCell><mxCell id="A-JmJNQjyQuitz2-YDWL-15" value="（容器-1）&lt;br&gt;NGINX&lt;br&gt;均衡负载" style="rounded=1;whiteSpace=wrap;html=1;" parent="A-JmJNQjyQuitz2-YDWL-18" vertex="1"><mxGeometry x="50" y="70" width="120" height="60" as="geometry"/></mxCell><mxCell id="A-JmJNQjyQuitz2-YDWL-19" value="（容器-2）&lt;br&gt;NodeJs Vue3&lt;br&gt;Web 前端" style="rounded=1;whiteSpace=wrap;html=1;" parent="A-JmJNQjyQuitz2-YDWL-18" vertex="1"><mxGeometry x="340" y="40" width="120" height="60" as="geometry"/></mxCell><mxCell id="A-JmJNQjyQuitz2-YDWL-20" value="" style="endArrow=classic;html=1;rounded=0;exitX=1;exitY=0.5;exitDx=0;exitDy=0;entryX=0;entryY=0.5;entryDx=0;entryDy=0;" parent="A-JmJNQjyQuitz2-YDWL-18" source="A-JmJNQjyQuitz2-YDWL-15" target="A-JmJNQjyQuitz2-YDWL-19" edge="1"><mxGeometry width="50" height="50" relative="1" as="geometry"><mxPoint x="240" y="60" as="sourcePoint"/><mxPoint x="290" y="10" as="targetPoint"/></mxGeometry></mxCell><mxCell id="A-JmJNQjyQuitz2-YDWL-23" value="Python Flask&lt;br&gt;Web 后端" style="rounded=1;whiteSpace=wrap;html=1;" parent="A-JmJNQjyQuitz2-YDWL-18" vertex="1"><mxGeometry x="330" y="130" width="120" height="60" as="geometry"/></mxCell><mxCell id="A-JmJNQjyQuitz2-YDWL-6" value="" style="endArrow=classic;html=1;rounded=0;exitX=1;exitY=0.5;exitDx=0;exitDy=0;entryX=0;entryY=0.5;entryDx=0;entryDy=0;" edge="1" parent="A-JmJNQjyQuitz2-YDWL-18" source="A-JmJNQjyQuitz2-YDWL-15" target="A-JmJNQjyQuitz2-YDWL-23"><mxGeometry width="50" height="50" relative="1" as="geometry"><mxPoint x="180" y="110" as="sourcePoint"/><mxPoint x="350" y="80" as="targetPoint"/></mxGeometry></mxCell><mxCell id="A-JmJNQjyQuitz2-YDWL-26" value="Redis" style="shape=cylinder3;whiteSpace=wrap;html=1;boundedLbl=1;backgroundOutline=1;size=15;" parent="A-JmJNQjyQuitz2-YDWL-18" vertex="1"><mxGeometry x="500" y="40" width="60" height="80" as="geometry"/></mxCell><mxCell id="A-JmJNQjyQuitz2-YDWL-25" value="数据库" style="shape=cylinder3;whiteSpace=wrap;html=1;boundedLbl=1;backgroundOutline=1;size=15;" parent="A-JmJNQjyQuitz2-YDWL-18" vertex="1"><mxGeometry x="590" y="40" width="60" height="80" as="geometry"/></mxCell><mxCell id="A-JmJNQjyQuitz2-YDWL-7" value="" style="endArrow=classic;html=1;rounded=0;exitX=1;exitY=0.5;exitDx=0;exitDy=0;entryX=0.5;entryY=1;entryDx=0;entryDy=0;entryPerimeter=0;" edge="1" parent="A-JmJNQjyQuitz2-YDWL-18" source="A-JmJNQjyQuitz2-YDWL-23" target="A-JmJNQjyQuitz2-YDWL-26"><mxGeometry width="50" height="50" relative="1" as="geometry"><mxPoint x="180" y="110" as="sourcePoint"/><mxPoint x="350" y="170" as="targetPoint"/><Array as="points"><mxPoint x="480" y="120"/></Array></mxGeometry></mxCell><mxCell id="A-JmJNQjyQuitz2-YDWL-29" value="" style="endArrow=classic;html=1;rounded=0;exitX=1;exitY=0.5;exitDx=0;exitDy=0;entryX=0.5;entryY=1;entryDx=0;entryDy=0;entryPerimeter=0;" edge="1" parent="A-JmJNQjyQuitz2-YDWL-18" source="A-JmJNQjyQuitz2-YDWL-23" target="A-JmJNQjyQuitz2-YDWL-25"><mxGeometry width="50" height="50" relative="1" as="geometry"><mxPoint x="350" y="290" as="sourcePoint"/><mxPoint x="400" y="240" as="targetPoint"/><Array as="points"><mxPoint x="590" y="160"/></Array></mxGeometry></mxCell><mxCell id="A-JmJNQjyQuitz2-YDWL-16" value="" style="shape=link;html=1;rounded=0;" parent="1" edge="1"><mxGeometry width="100" relative="1" as="geometry"><mxPoint y="320" as="sourcePoint"/><mxPoint x="850" y="320" as="targetPoint"/></mxGeometry></mxCell><mxCell id="A-JmJNQjyQuitz2-YDWL-17" value="内联网" style="edgeLabel;html=1;align=center;verticalAlign=middle;resizable=0;points=[];" parent="A-JmJNQjyQuitz2-YDWL-16" vertex="1" connectable="0"><mxGeometry x="-0.0581" relative="1" as="geometry"><mxPoint as="offset"/></mxGeometry></mxCell><mxCell id="A-JmJNQjyQuitz2-YDWL-21" value="" style="endArrow=classic;html=1;rounded=0;entryX=0.5;entryY=0;entryDx=0;entryDy=0;exitX=0.5;exitY=0.5;exitDx=0;exitDy=0;exitPerimeter=0;" parent="1" source="A-JmJNQjyQuitz2-YDWL-1" target="A-JmJNQjyQuitz2-YDWL-5" edge="1"><mxGeometry width="50" height="50" relative="1" as="geometry"><mxPoint x="390" y="420" as="sourcePoint"/><mxPoint x="440" y="370" as="targetPoint"/></mxGeometry></mxCell><mxCell id="A-JmJNQjyQuitz2-YDWL-27" value="&lt;div data-docx-has-block-data=&quot;false&quot; data-page-id=&quot;S8zudVd3GoOT5fxLh2EcOCG3nLf&quot;&gt;&lt;div class=&quot;old-record-id-S8zudVd3GoOT5fxLh2EcOCG3nLf&quot;&gt;魔搭/其他第三方平台&lt;/div&gt;&lt;/div&gt;&lt;span class=&quot;lark-record-clipboard&quot; data-lark-record-format=&quot;docx/text&quot; data-lark-record-data=&quot;{&amp;quot;rootId&amp;quot;:&amp;quot;S8zudVd3GoOT5fxLh2EcOCG3nLf&amp;quot;,&amp;quot;text&amp;quot;:{&amp;quot;initialAttributedTexts&amp;quot;:{&amp;quot;text&amp;quot;:{&amp;quot;0&amp;quot;:&amp;quot;魔搭&amp;quot;},&amp;quot;attribs&amp;quot;:{&amp;quot;0&amp;quot;:&amp;quot;*0+2&amp;quot;}},&amp;quot;apool&amp;quot;:{&amp;quot;numToAttrib&amp;quot;:{&amp;quot;0&amp;quot;:[&amp;quot;author&amp;quot;,&amp;quot;7168305751084367900&amp;quot;]},&amp;quot;nextNum&amp;quot;:1}},&amp;quot;type&amp;quot;:&amp;quot;text&amp;quot;,&amp;quot;referenceRecordMap&amp;quot;:{},&amp;quot;extra&amp;quot;:{&amp;quot;mention_page_title&amp;quot;:{},&amp;quot;external_mention_url&amp;quot;:{}},&amp;quot;isKeepQuoteContainer&amp;quot;:false,&amp;quot;isFromCode&amp;quot;:false,&amp;quot;selection&amp;quot;:[{&amp;quot;id&amp;quot;:1,&amp;quot;type&amp;quot;:&amp;quot;text&amp;quot;,&amp;quot;selection&amp;quot;:{&amp;quot;start&amp;quot;:9,&amp;quot;end&amp;quot;:11},&amp;quot;recordId&amp;quot;:&amp;quot;S8zudVd3GoOT5fxLh2EcOCG3nLf&amp;quot;}],&amp;quot;payloadMap&amp;quot;:{},&amp;quot;isCut&amp;quot;:false}&quot;&gt;&lt;/span&gt;" style="rounded=1;whiteSpace=wrap;html=1;" parent="1" vertex="1"><mxGeometry x="50" y="700" width="140" height="60" as="geometry"/></mxCell><mxCell id="A-JmJNQjyQuitz2-YDWL-28" value="任务调度中心 机器-2 / 机器群" style="swimlane;whiteSpace=wrap;html=1;" parent="1" vertex="1"><mxGeometry x="110" y="800" width="650" height="250" as="geometry"/></mxCell><mxCell id="A-JmJNQjyQuitz2-YDWL-45" value="Docker" style="swimlane;whiteSpace=wrap;html=1;" vertex="1" parent="A-JmJNQjyQuitz2-YDWL-28"><mxGeometry x="260" y="40" width="360" height="200" as="geometry"/></mxCell><mxCell id="A-JmJNQjyQuitz2-YDWL-48" value="(容器-1)&lt;br&gt;用户1" style="rounded=1;whiteSpace=wrap;html=1;" vertex="1" parent="A-JmJNQjyQuitz2-YDWL-45"><mxGeometry x="40" y="40" width="120" height="60" as="geometry"/></mxCell><mxCell id="A-JmJNQjyQuitz2-YDWL-55" value="(容器-2)&lt;br&gt;用户2" style="rounded=1;whiteSpace=wrap;html=1;" vertex="1" parent="A-JmJNQjyQuitz2-YDWL-45"><mxGeometry x="40" y="130" width="120" height="60" as="geometry"/></mxCell><mxCell id="A-JmJNQjyQuitz2-YDWL-56" value="(容器-3)&lt;br&gt;用户3" style="rounded=1;whiteSpace=wrap;html=1;" vertex="1" parent="A-JmJNQjyQuitz2-YDWL-45"><mxGeometry x="200" y="40" width="120" height="60" as="geometry"/></mxCell><mxCell id="A-JmJNQjyQuitz2-YDWL-57" value="(容器-N)&lt;br&gt;用户N" style="rounded=1;whiteSpace=wrap;html=1;" vertex="1" parent="A-JmJNQjyQuitz2-YDWL-45"><mxGeometry x="200" y="130" width="120" height="60" as="geometry"/></mxCell><mxCell id="A-JmJNQjyQuitz2-YDWL-46" value="Python Flask&lt;br&gt;任务调配&lt;br&gt;管理Docker" style="rounded=1;whiteSpace=wrap;html=1;" vertex="1" parent="A-JmJNQjyQuitz2-YDWL-28"><mxGeometry x="40" y="60" width="120" height="60" as="geometry"/></mxCell><mxCell id="A-JmJNQjyQuitz2-YDWL-47" value="Redis" style="shape=cylinder3;whiteSpace=wrap;html=1;boundedLbl=1;backgroundOutline=1;size=15;" vertex="1" parent="A-JmJNQjyQuitz2-YDWL-28"><mxGeometry x="70" y="160" width="60" height="80" as="geometry"/></mxCell><mxCell id="A-JmJNQjyQuitz2-YDWL-60" value="" style="endArrow=classic;startArrow=classic;html=1;rounded=0;strokeWidth=1;exitX=1;exitY=0.5;exitDx=0;exitDy=0;entryX=0;entryY=0.5;entryDx=0;entryDy=0;" edge="1" parent="A-JmJNQjyQuitz2-YDWL-28" source="A-JmJNQjyQuitz2-YDWL-46" target="A-JmJNQjyQuitz2-YDWL-45"><mxGeometry width="50" height="50" relative="1" as="geometry"><mxPoint x="290" y="90" as="sourcePoint"/><mxPoint x="340" y="40" as="targetPoint"/></mxGeometry></mxCell><mxCell id="A-JmJNQjyQuitz2-YDWL-61" value="" style="endArrow=classic;html=1;rounded=0;strokeWidth=1;exitX=0.5;exitY=1;exitDx=0;exitDy=0;entryX=0.5;entryY=0;entryDx=0;entryDy=0;entryPerimeter=0;" edge="1" parent="A-JmJNQjyQuitz2-YDWL-28" source="A-JmJNQjyQuitz2-YDWL-46" target="A-JmJNQjyQuitz2-YDWL-47"><mxGeometry width="50" height="50" relative="1" as="geometry"><mxPoint x="290" y="190" as="sourcePoint"/><mxPoint x="340" y="140" as="targetPoint"/></mxGeometry></mxCell><mxCell id="A-JmJNQjyQuitz2-YDWL-12" value="" style="endArrow=classic;html=1;rounded=0;entryX=0.5;entryY=0;entryDx=0;entryDy=0;exitX=0.5;exitY=1;exitDx=0;exitDy=0;" edge="1" parent="1" source="A-JmJNQjyQuitz2-YDWL-5" target="A-JmJNQjyQuitz2-YDWL-14"><mxGeometry width="50" height="50" relative="1" as="geometry"><mxPoint x="175" y="90" as="sourcePoint"/><mxPoint x="175" y="170" as="targetPoint"/><Array as="points"><mxPoint x="400" y="330"/></Array></mxGeometry></mxCell><mxCell id="A-JmJNQjyQuitz2-YDWL-13" value="" style="endArrow=classic;html=1;rounded=0;entryX=0.5;entryY=0;entryDx=0;entryDy=0;exitX=0.5;exitY=1;exitDx=0;exitDy=0;" edge="1" parent="1" source="A-JmJNQjyQuitz2-YDWL-8" target="A-JmJNQjyQuitz2-YDWL-14"><mxGeometry width="50" height="50" relative="1" as="geometry"><mxPoint x="175" y="230" as="sourcePoint"/><mxPoint x="410" y="410" as="targetPoint"/><Array as="points"><mxPoint x="400" y="340"/></Array></mxGeometry></mxCell><mxCell id="A-JmJNQjyQuitz2-YDWL-22" value="" style="endArrow=classic;html=1;rounded=0;exitX=0.5;exitY=1;exitDx=0;exitDy=0;" edge="1" parent="1" source="A-JmJNQjyQuitz2-YDWL-9"><mxGeometry width="50" height="50" relative="1" as="geometry"><mxPoint x="400" y="360" as="sourcePoint"/><mxPoint x="400" y="400" as="targetPoint"/><Array as="points"><mxPoint x="400" y="330"/></Array></mxGeometry></mxCell><mxCell id="A-JmJNQjyQuitz2-YDWL-34" value="" style="endArrow=classic;html=1;rounded=0;exitX=0.5;exitY=1;exitDx=0;exitDy=0;entryX=0.5;entryY=0;entryDx=0;entryDy=0;fillColor=#1ba1e2;strokeColor=#006EAF;strokeWidth=4;" edge="1" parent="1" source="A-JmJNQjyQuitz2-YDWL-23" target="A-JmJNQjyQuitz2-YDWL-28"><mxGeometry width="50" height="50" relative="1" as="geometry"><mxPoint x="460" y="640" as="sourcePoint"/><mxPoint x="160" y="690" as="targetPoint"/></mxGeometry></mxCell><mxCell id="A-JmJNQjyQuitz2-YDWL-49" value="" style="endArrow=classic;startArrow=classic;html=1;rounded=0;strokeWidth=4;exitX=0.55;exitY=0.017;exitDx=0;exitDy=0;exitPerimeter=0;entryX=0.5;entryY=1;entryDx=0;entryDy=0;fillColor=#a20025;strokeColor=#6F0000;" edge="1" parent="1" source="A-JmJNQjyQuitz2-YDWL-27" target="A-JmJNQjyQuitz2-YDWL-23"><mxGeometry width="50" height="50" relative="1" as="geometry"><mxPoint x="400" y="870" as="sourcePoint"/><mxPoint x="450" y="820" as="targetPoint"/></mxGeometry></mxCell><mxCell id="A-JmJNQjyQuitz2-YDWL-51" value="用户问题抽出参数/整理回复" style="edgeLabel;html=1;align=center;verticalAlign=middle;resizable=0;points=[];" vertex="1" connectable="0" parent="A-JmJNQjyQuitz2-YDWL-49"><mxGeometry x="-0.3026" y="-4" relative="1" as="geometry"><mxPoint as="offset"/></mxGeometry></mxCell><mxCell id="A-JmJNQjyQuitz2-YDWL-53" value="" style="endArrow=classic;html=1;rounded=0;entryX=0.5;entryY=0;entryDx=0;entryDy=0;exitX=0.5;exitY=0.5;exitDx=0;exitDy=0;exitPerimeter=0;" edge="1" parent="1" source="A-JmJNQjyQuitz2-YDWL-2" target="A-JmJNQjyQuitz2-YDWL-8"><mxGeometry width="50" height="50" relative="1" as="geometry"><mxPoint x="175" y="90" as="sourcePoint"/><mxPoint x="175" y="170" as="targetPoint"/></mxGeometry></mxCell><mxCell id="A-JmJNQjyQuitz2-YDWL-54" value="" style="endArrow=classic;html=1;rounded=0;entryX=0.5;entryY=0;entryDx=0;entryDy=0;exitX=0.5;exitY=0.5;exitDx=0;exitDy=0;exitPerimeter=0;" edge="1" parent="1" source="A-JmJNQjyQuitz2-YDWL-10" target="A-JmJNQjyQuitz2-YDWL-9"><mxGeometry width="50" height="50" relative="1" as="geometry"><mxPoint x="590" y="100" as="sourcePoint"/><mxPoint x="390" y="170" as="targetPoint"/></mxGeometry></mxCell><mxCell id="A-JmJNQjyQuitz2-YDWL-63" value="第三方平台工具" style="rounded=1;whiteSpace=wrap;html=1;" vertex="1" parent="1"><mxGeometry x="-110" y="1010" width="120" height="60" as="geometry"/></mxCell><mxCell id="A-JmJNQjyQuitz2-YDWL-64" value="其他服务器上的工具" style="rounded=1;whiteSpace=wrap;html=1;" vertex="1" parent="1"><mxGeometry x="-120" y="830" width="120" height="60" as="geometry"/></mxCell><mxCell id="A-JmJNQjyQuitz2-YDWL-65" value="" style="endArrow=classic;startArrow=classic;html=1;rounded=0;strokeWidth=1;exitX=0;exitY=0.5;exitDx=0;exitDy=0;entryX=0.5;entryY=0;entryDx=0;entryDy=0;" edge="1" parent="1" source="A-JmJNQjyQuitz2-YDWL-46" target="A-JmJNQjyQuitz2-YDWL-63"><mxGeometry width="50" height="50" relative="1" as="geometry"><mxPoint x="400" y="1010" as="sourcePoint"/><mxPoint x="450" y="960" as="targetPoint"/></mxGeometry></mxCell><mxCell id="A-JmJNQjyQuitz2-YDWL-66" value="" style="endArrow=classic;startArrow=classic;html=1;rounded=0;strokeWidth=1;exitX=0;exitY=0.5;exitDx=0;exitDy=0;entryX=1;entryY=0.5;entryDx=0;entryDy=0;" edge="1" parent="1" source="A-JmJNQjyQuitz2-YDWL-46" target="A-JmJNQjyQuitz2-YDWL-64"><mxGeometry width="50" height="50" relative="1" as="geometry"><mxPoint x="400" y="1010" as="sourcePoint"/><mxPoint x="60" y="1040" as="targetPoint"/></mxGeometry></mxCell></root></mxGraphModel></diagram><diagram id="XK3p6FEg20ar1NtlBrvO" name="用户解决问题"><mxGraphModel dx="1037" dy="448" grid="1" gridSize="10" guides="1" tooltips="1" connect="1" arrows="1" fold="1" page="1" pageScale="1" pageWidth="850" pageHeight="1100" math="0" shadow="0"><root><mxCell id="0"/><mxCell id="1" parent="0"/><mxCell id="zyj8WMsRT48jaomMzxaJ-1" value="小飞" style="shape=umlActor;verticalLabelPosition=bottom;verticalAlign=top;html=1;outlineConnect=0;" vertex="1" parent="1"><mxGeometry x="140" y="180" width="30" height="60" as="geometry"/></mxCell><mxCell id="zyj8WMsRT48jaomMzxaJ-2" value="浏览器&lt;br&gt;建兴智能助手" style="rounded=0;whiteSpace=wrap;html=1;" vertex="1" parent="1"><mxGeometry x="425" y="180" width="120" height="60" as="geometry"/></mxCell><mxCell id="zyj8WMsRT48jaomMzxaJ-3" value="" style="endArrow=classic;html=1;rounded=0;strokeWidth=1;exitX=0.5;exitY=0.5;exitDx=0;exitDy=0;exitPerimeter=0;entryX=0;entryY=0.5;entryDx=0;entryDy=0;" edge="1" parent="1" source="zyj8WMsRT48jaomMzxaJ-1" target="zyj8WMsRT48jaomMzxaJ-2"><mxGeometry width="50" height="50" relative="1" as="geometry"><mxPoint x="400" y="350" as="sourcePoint"/><mxPoint x="450" y="300" as="targetPoint"/></mxGeometry></mxCell><mxCell id="zyj8WMsRT48jaomMzxaJ-5" value="我要连接建兴公司数据库" style="edgeLabel;html=1;align=center;verticalAlign=middle;resizable=0;points=[];" vertex="1" connectable="0" parent="zyj8WMsRT48jaomMzxaJ-3"><mxGeometry x="-0.1568" y="1" relative="1" as="geometry"><mxPoint x="17" y="1" as="offset"/></mxGeometry></mxCell><mxCell id="kTAaM6tpir60oRuVUiaa-2" value="" style="endArrow=classic;html=1;rounded=0;strokeWidth=1;exitX=0.5;exitY=1;exitDx=0;exitDy=0;entryX=0.5;entryY=0;entryDx=0;entryDy=0;" edge="1" parent="1" source="zyj8WMsRT48jaomMzxaJ-2" target="Cdspii3b7qmPgpOtKxr_-11"><mxGeometry width="50" height="50" relative="1" as="geometry"><mxPoint x="400" y="350" as="sourcePoint"/><mxPoint x="485" y="350" as="targetPoint"/></mxGeometry></mxCell><mxCell id="kTAaM6tpir60oRuVUiaa-4" value="HTTP API&amp;nbsp;" style="edgeLabel;html=1;align=center;verticalAlign=middle;resizable=0;points=[];" vertex="1" connectable="0" parent="kTAaM6tpir60oRuVUiaa-2"><mxGeometry x="0.2727" y="2" relative="1" as="geometry"><mxPoint x="-2" y="-10" as="offset"/></mxGeometry></mxCell><mxCell id="kTAaM6tpir60oRuVUiaa-7" value="&lt;div data-docx-has-block-data=&quot;false&quot; data-page-id=&quot;S8zudVd3GoOT5fxLh2EcOCG3nLf&quot;&gt;&lt;div class=&quot;old-record-id-S8zudVd3GoOT5fxLh2EcOCG3nLf&quot;&gt;魔搭/其他第三方平台&lt;/div&gt;&lt;/div&gt;&lt;span class=&quot;lark-record-clipboard&quot; data-lark-record-format=&quot;docx/text&quot; data-lark-record-data=&quot;{&amp;quot;rootId&amp;quot;:&amp;quot;S8zudVd3GoOT5fxLh2EcOCG3nLf&amp;quot;,&amp;quot;text&amp;quot;:{&amp;quot;initialAttributedTexts&amp;quot;:{&amp;quot;text&amp;quot;:{&amp;quot;0&amp;quot;:&amp;quot;魔搭&amp;quot;},&amp;quot;attribs&amp;quot;:{&amp;quot;0&amp;quot;:&amp;quot;*0+2&amp;quot;}},&amp;quot;apool&amp;quot;:{&amp;quot;numToAttrib&amp;quot;:{&amp;quot;0&amp;quot;:[&amp;quot;author&amp;quot;,&amp;quot;7168305751084367900&amp;quot;]},&amp;quot;nextNum&amp;quot;:1}},&amp;quot;type&amp;quot;:&amp;quot;text&amp;quot;,&amp;quot;referenceRecordMap&amp;quot;:{},&amp;quot;extra&amp;quot;:{&amp;quot;mention_page_title&amp;quot;:{},&amp;quot;external_mention_url&amp;quot;:{}},&amp;quot;isKeepQuoteContainer&amp;quot;:false,&amp;quot;isFromCode&amp;quot;:false,&amp;quot;selection&amp;quot;:[{&amp;quot;id&amp;quot;:1,&amp;quot;type&amp;quot;:&amp;quot;text&amp;quot;,&amp;quot;selection&amp;quot;:{&amp;quot;start&amp;quot;:9,&amp;quot;end&amp;quot;:11},&amp;quot;recordId&amp;quot;:&amp;quot;S8zudVd3GoOT5fxLh2EcOCG3nLf&amp;quot;}],&amp;quot;payloadMap&amp;quot;:{},&amp;quot;isCut&amp;quot;:false}&quot;&gt;&lt;/span&gt;" style="rounded=1;whiteSpace=wrap;html=1;" vertex="1" parent="1"><mxGeometry x="50" y="405" width="120" height="60" as="geometry"/></mxCell><mxCell id="Cdspii3b7qmPgpOtKxr_-1" value="" style="endArrow=classic;html=1;rounded=0;strokeWidth=1;entryX=1;entryY=0.5;entryDx=0;entryDy=0;exitX=0;exitY=0.5;exitDx=0;exitDy=0;" edge="1" parent="1" source="Cdspii3b7qmPgpOtKxr_-11" target="kTAaM6tpir60oRuVUiaa-7"><mxGeometry width="50" height="50" relative="1" as="geometry"><mxPoint x="310" y="430" as="sourcePoint"/><mxPoint x="370" y="380" as="targetPoint"/></mxGeometry></mxCell><mxCell id="Cdspii3b7qmPgpOtKxr_-3" value="HTTP API" style="edgeLabel;html=1;align=center;verticalAlign=middle;resizable=0;points=[];" vertex="1" connectable="0" parent="Cdspii3b7qmPgpOtKxr_-1"><mxGeometry x="0.1153" y="-1" relative="1" as="geometry"><mxPoint as="offset"/></mxGeometry></mxCell><mxCell id="Cdspii3b7qmPgpOtKxr_-6" value="" style="endArrow=classic;html=1;rounded=0;strokeColor=#6F0000;strokeWidth=1;exitX=0.5;exitY=1;exitDx=0;exitDy=0;fillColor=#a20025;entryX=0.5;entryY=1;entryDx=0;entryDy=0;" edge="1" parent="1" source="kTAaM6tpir60oRuVUiaa-7" target="Cdspii3b7qmPgpOtKxr_-11"><mxGeometry width="50" height="50" relative="1" as="geometry"><mxPoint x="320" y="540" as="sourcePoint"/><mxPoint x="570" y="590" as="targetPoint"/><Array as="points"><mxPoint x="110" y="560"/><mxPoint x="485" y="560"/></Array></mxGeometry></mxCell><mxCell id="Cdspii3b7qmPgpOtKxr_-8" value="缺少连接参数" style="edgeLabel;html=1;align=center;verticalAlign=middle;resizable=0;points=[];" vertex="1" connectable="0" parent="Cdspii3b7qmPgpOtKxr_-6"><mxGeometry x="-0.0502" relative="1" as="geometry"><mxPoint as="offset"/></mxGeometry></mxCell><mxCell id="Cdspii3b7qmPgpOtKxr_-11" value="&lt;span style=&quot;font-weight: 400;&quot;&gt;(Python Flask)&amp;nbsp;&lt;/span&gt;&lt;span style=&quot;font-weight: 400;&quot;&gt;建兴智能助手后端&lt;/span&gt;" style="swimlane;whiteSpace=wrap;html=1;" vertex="1" parent="1"><mxGeometry x="347.5" y="360" width="275" height="150" as="geometry"><mxRectangle x="347.5" y="360" width="220" height="30" as="alternateBounds"/></mxGeometry></mxCell><mxCell id="Cdspii3b7qmPgpOtKxr_-12" value="没有CMD" style="html=1;whiteSpace=wrap;aspect=fixed;shape=isoRectangle;" vertex="1" parent="Cdspii3b7qmPgpOtKxr_-11"><mxGeometry x="91.25" y="47.25" width="92.5" height="55.5" as="geometry"/></mxCell><mxCell id="Cdspii3b7qmPgpOtKxr_-15" value="" style="endArrow=classic;html=1;rounded=0;strokeColor=#6F0000;strokeWidth=1;exitX=0.5;exitY=1;exitDx=0;exitDy=0;fillColor=#a20025;" edge="1" parent="Cdspii3b7qmPgpOtKxr_-11" source="Cdspii3b7qmPgpOtKxr_-11" target="Cdspii3b7qmPgpOtKxr_-12"><mxGeometry width="50" height="50" relative="1" as="geometry"><mxPoint x="-27.5" y="70" as="sourcePoint"/><mxPoint x="172.5" y="110" as="targetPoint"/></mxGeometry></mxCell><mxCell id="Cdspii3b7qmPgpOtKxr_-17" value="" style="endArrow=classic;html=1;rounded=0;strokeColor=#6F0000;strokeWidth=1;exitX=0.966;exitY=0.45;exitDx=0;exitDy=0;exitPerimeter=0;entryX=1;entryY=0.5;entryDx=0;entryDy=0;fillColor=#a20025;" edge="1" parent="Cdspii3b7qmPgpOtKxr_-11" source="Cdspii3b7qmPgpOtKxr_-12" target="Cdspii3b7qmPgpOtKxr_-11"><mxGeometry width="50" height="50" relative="1" as="geometry"><mxPoint x="-27.5" y="70" as="sourcePoint"/><mxPoint x="22.5" y="20" as="targetPoint"/></mxGeometry></mxCell><mxCell id="Cdspii3b7qmPgpOtKxr_-13" value="" style="endArrow=classic;html=1;rounded=0;strokeColor=#6F0000;strokeWidth=1;exitX=1;exitY=0.5;exitDx=0;exitDy=0;entryX=1;entryY=0.5;entryDx=0;entryDy=0;fillColor=#a20025;" edge="1" parent="1" source="Cdspii3b7qmPgpOtKxr_-11" target="zyj8WMsRT48jaomMzxaJ-2"><mxGeometry width="50" height="50" relative="1" as="geometry"><mxPoint x="320" y="430" as="sourcePoint"/><mxPoint x="720" y="340" as="targetPoint"/><Array as="points"><mxPoint x="730" y="435"/><mxPoint x="730" y="210"/></Array></mxGeometry></mxCell><mxCell id="Cdspii3b7qmPgpOtKxr_-14" value="WebSocket" style="edgeLabel;html=1;align=center;verticalAlign=middle;resizable=0;points=[];" vertex="1" connectable="0" parent="Cdspii3b7qmPgpOtKxr_-13"><mxGeometry x="-0.2013" y="2" relative="1" as="geometry"><mxPoint as="offset"/></mxGeometry></mxCell><mxCell id="nyGznOWmEfIIYyDsJfHE-1" value="" style="shape=image;verticalLabelPosition=bottom;labelBackgroundColor=default;verticalAlign=top;aspect=fixed;imageAspect=0;image=data:image/png,iVBORw0KGgoAAAANSUhEUgAAAZsAAADYCAYAAAA9I06OAAAAAXNSR0IArs4c6QAAAARnQU1BAACxjwv8YQUAAAAJcEhZcwAADsMAAA7DAcdvqGQAADSDSURBVHhe7Z1PbBVHvu9/k/vmJaObe68iEl6MhGyEkCbDIItFjJGFXwzcBRKyvMh4gc8C4QVSYulgdogjdIUOYoc5isV7LIxY2Cw80YvjILEYwFfwLIgXIY6HyUhcZFtIOHHsRDPDVSZ39MavflXVfaqrq/+cP30M+PuRGlx9uqvrX9e3fr+q7v7ZmoAAAACADHlF/w8AAABkBsQGAABA5kBsAAAAZM6LJTazJWprL9GcDoIaWJ6gQZQlAKBBrK/YVNjhrT55RLS3mbbocJAHVGofoMlZjlP8v6x314nV6wPUNvxAhxRzw12hfeuBK22JbO6hY7kJ6h+coFW9KxIh8oPXl3QgSFXXbjQ8SIlLY4p2KPOZpqxiWaLJwS6/LMPth9twF5VmdTASPs6d3ue5PmR+aypDfY9b9zbHG9U+o6hPfYJKaNhqNG4Qt/dNUb5V72D4Ju9epGP387RL72Kcx8qGdpLGdMij77J3HP8+Qtsmh6l7M9/UR2j+qB1HLag4i5SnG0M9tEns4XT20wWaGditDnGiz7ung6nZSQXOC3EZlWha72U6Ctfo2MIR6h/VOxyUyyUOs8z0LidRx6k6oTTXiqhrifytRC2p0lwNZt0106ijHTnZW65r7pwO3Troh700m/USIOdoFyx6x4lGdBmE209EeTrKLqrtyXQu9Jf3J6Uzlh6Z1i0iziKdpqHDTXq/QMZ7k7rsNuFIq8Q6Xqaz+FD/6MZuw6E68IhKi4ks+wkdSELfe7H3BKgYFpuG8O0nayf2vLd28UsdZuS+i2tf6SDz1Ufvrb0r9n367VO9R/PlxbV3T3yytqKDa2tfrF3c86E4TgdD4Wzg9Kk8PF379IRI60dfyP31QccpyskZL5eBI48rn31oHK/iKJezEWeF24nPynUgryHLn8vZfXxoM/PgqGuTcvxZYZeLQULamFD6Ys4J1oeHur5ZprKtB45TZRtKo/Na7vbuvrYDGWdEeVisiHbHx4bitdujH366tmKli/Maak9GfMHfXXXl7aukPRtlFuo/omhMP7IRaexzNnqU5Y9gA6OgsOVQxrNULhBdXaQc/67PbclN0FjUCN8YmdYflaapA9eCI74qKY/0okZV5VFv7knyqFChRqYhS6IqOL/niE55afPqJKU1EqhrlZdE68JlHdSBNKNqRo6syTEi5nZ1iqhYiWVjWDXEVkmMVerBFqxsW4GyK+Ma6ct9pmUThX0vJuJZt6eJzqe01L0y4Lxfbdbp5Hju0LbCIyoa6WRL7UqLdy852pZlFVYMLJv1R0pOIzFHGOaILWbk4Y8qxYjpK/23/N8caclRVbqRWmVUMpIKbqnSokeY8pzIEalOQ8TvwVGia1TIRIyaA8RfJ0CgvqKuKTDz523eec46X4eRpdNyCOK3QR2OOydsXehytfJam2XD8PHB/eFrR6DrJVUbTSSuzoK/eRaMnc54y8YuP1VOgTYV2qz0xPQvQaLzItPc6Lb5EtH4BQKteZpxWRtR+8UIrChGoX3bF6k4Q7Tr8DDdOHCT+otEhd7y6E0uHhCM3a335GgTdQ9N0cx9e7tAfeJXHn1G/ZaMGOXJ0TGPpMR5EaPR1evnlMVn/M4jwbZ2tclR+uhJHY4ade6m/TlRPldjJkWXP6cpcW7fPiMdPCLU1ylPPIt0i1Fi39EUVuPmHhriMpnMU4e0tMTfXj2LOue6PGTGK623Oo4qrfTzyN8Pe5usgwnqt/cnLjRxnaPrw0DWX8VzdmnYTXlrpP904SF1tLytQ8ksXOXyiM5noLyqWXiwvEgL9FBYgSoOnmeq2BMwO26VH+fbu9eiNkcbuleiQ15eIreU83mgYhrjRqvIhNV4LjA+924njexbpPmrJSpuv0A3WkYsV4HqpBZyPaLTpfDkZBZIN0TEpGTcbwG8zjXOlaFcCubN5rtXNEHXSYx7KyFdMp7iDqerInCNlPUZSKe8tnIF8YRzo92AwTKqHHk+u6zYfTbeTEO9i35+YstKl3kLC/3joMurlgUCUQTdUTHIOEtixHaNCnRO1ofdrkzCeUpedBCY4OdzzovL6fzL+BLagDqfy2SEyCy/VNe3XGHcZn1XXhzqesmLZkDFSPvmeSPS5NXmtOU6kO4IuU//nsaNUCO+W4XdEXZapYsijbmt3AGVuDKC7gZFateJLh/7fIV2TUTEE38N2+3hQLtt2MURPK4xdRZMfwo3jFWnyoUS3p8En8f5ledb59buRrOpoD3ZbjSvfiLyF1//fN2Y9i5d3PHuvkg3mjiX97vKryJkGnTdJm5wlWXBC/VQp3JHBEe7PELiyda+y7yvibpP5alj9GSKZxVq4QGN8kjwwB7axM+rbBfmeVbPNvAozndzPKDbIq8tW0lYL2XTP+hG05szPU0izTtpujgefkZj9g6N8WjQcE3WBc+NJUeiyo0WHLWz6y6D66aAR84uF8yNwk59hMIfhWtr+6nhwozfSvT08HAwv155iE0uEgjUm3LhjB33whU+LyZdVj2037Zo06DdnSPcliu9bizCUpBWsOFyrOReac1X7naLguvPquvwltYFDiqlQavRwq6gRAIryZR7Ycxyq0g3hLhhnW6lBLdALaj4TXeTzt92Y/VNqpUzEW6TACpuueqt7XOnO0WmJ62LSLsg7FVIsiwfm2UexL+GdB8lu1AkZh3K66q0p12NFWwDtREsI689xeBdW9Tl4JNe5WpyPeOhSXJfyevHnB+LUXZ+vYt9pZk9lDeuF3bLxRDRDphw+zbLj5LLzid6VVewPuzyC7uCg+WXov5SuGD5muHn+UBmSPvmeSPgRotw70izONrclWZ3KtdDpaj0lE1+D96vrpf+2indHjqvJ7S7ScVvmv3uzR2vw21lu1Qc2G6PIGndaMEyCbuR9HVqcZdEEEx/fLm70hDaZ+XH5d40ceer3GaYYBoNHNcKxWW4iRLbE5Oizk0i0ybhfFTmerLji3SjaYLll3Df2G1Nlo0Kl6/zdG3ly4gy4OMj8wqq5QVwo6mVJ7wowHu9BI9IeNGAt+JEhn3TnEdFAzTdNix+t0Y20oVRy/vAOG4xohKj3kJoBGutDIp8rU4VtOZpJPeQprW7adNhzlvZ9JduH36mwdjHm3vEplxp9HjRX5U2Ny4sFZGnXOQIT7kN64qoC9ONxG5Prkc5oo4a/ddcfwK2VK4vyj/L7qrgljRxzazO3KTpXGegfU0XjwTiiXXlsmUhRucLhU7aol1Wmw6fpsJjLo+IPMpzlAUQWLnJ+3l1oLBSuC2MHa+nG8yCr1XNa1502mXZiPOf6t3ZI+7ZqxPUUei1rJwm2tTaQ0OTeVrwVmjq9jXZ1KnqwXL3sXVVsWsT+Lwgczaqs/OW2u7ax6vO7vg3ZDDcRN1Hd1DxfPiGmLs7ITrlYAdRCXPD7AoU5nmsK0R3zNubY47RyHmSFIgb9Yp0O+klpDW+00mKlZcHHbecf5K/WsgbkDvFazRCMR1hpfBSd08YL/fIjl+51ibodkQnXWv9SWG72iwGCs0ymHbOJoyuYxGf+U4udtua8US5Z2SnpV1YQ4fF4MF3M6ll9jcKj+T8hi9WS4tqabZ0pfE5xkCH60fExavK+Hpctzww4QdO61JPGl5SLcuPrxXVVlzI9iPaLK9E88pGtD05EDPmq7juy2Jdocs9Bm+e95hRZtML3+i/BDxXpe8Fr311b94t6uGaEJwRCEsdacCcjfK/Vtx4DH990F/LKJ8td4DqxrPnPtQ1g0/3q33VvS/N8xE7/MA8YhM3YGAOI3KuweFrTnpKnm/W448M33cl5SnSO9lMV+z0pUXmo5lGh4nyXhplepKXPSus68u8Onz+VhmwhSOFJ7C/lvqzz7Xbi8DKl3MeULdBXiCg5kZ0XtjS3V6iqTRzNvLNA8nLmN3XM9uJ1w5c8yL6N+fbODS63aZ7g4CKL/ptGVyelS0XlvmLnGcM13WwD3DcRyEi5mxc96tP9BwTqAPSmfa8wT7TBP+s7e8P+cwDcQgccwbpUNeHD3edqbr+asSYC+H25Zp7kfv0McEto/Tq+ZZAe7fhY+x5HRMdR9o5GwBqpbHvRgMAALAheaGeswEAAPBiArEBAACQORAbAAAAmQOxAQAAkDkQGwAAAJkDsQEAAJA5EBsAAACZA7EBAACQORAbAAAAmQOxAQAAkDkQGwAAAJkDsQEAAJA5EBsAAACZA7EBAACQORAbAAAAmQOxAQAAkDkQGwAAAJkDsQEAAJA5EBsAAACZ87M1gf67ofz003/R3/72/+T297//Xe575ZVX6Oc//we5vfrqf5f7AAAAvPg0XGz++tf/oh9//EkITPxlX3nlZ/SLX7xKr70G0QEAgBedhorNf/7nX6XYVAKLzT/+42s6BAAA4EWkYXM21QgNw+fwuQAAAF5cGiI2LBjVCI1HreebrF4foLbhBzpkMFuitsEJWtXBEMsTNNheojkdrA8PqJQ6ziWaHOyiwetLOmwg0zZAk8s6XE8SymVuOCJNPpzHmLRlUq4AgOeNhogNz9HUSi1xRHWIpvCsPnlEtL2ZNslQEtyBdlFbwlaa1YdHspv25yaoP01nu/w5Td3roWOHm/SOMqszN2k610/dm/UOAAB4zshcbHjVWdJiAMkfP6ZLd77TgTAcB8dVDbsGrlHXrSOBzp+F5tBCP80M7BahJZq+9ZD69vHf6em7PEUz913bNSrs1QdJosWpf5R/Z8Fx/C4tCmXRtHWXaDpwnGctqLTT6MnguWLzBFaKqmFdqHDwWG+Lt1IESRYgAAA4yFxseGlzMt/R3dtP9N/RpIvLRRN1D01RvlUHBZsOD2uhEUirgWjsuN35CotDunnE32ZnP3xHnVchtjjdKOwk2punG8a+wDbU41tawXMvUJ/eT7PjVNx+wfiNN1vsXOykwqR5jtgm80TFI8mC48QT1GR3XrLrDQDwsrHuYvP1x0N09uwoTa3oHTFUJTaeWOjtUNGyAoYf0Ny4EJKc0WGLTreDemjkfp52be6hocA+8fdAp4w6LE7edoSKQrzi0dbU0bKgVI7o4I8/okJvZRZZJCKvx3JE08VxmmMLhvNyfILoXokO8d+hua4HdFtYZtNCoNraT9JYrscQQX0+76eHVOxWZZPsWgQAvIxkLjbeA5tRvPP+IJ05M0i/+ZXeEUNSXE48sRDbjYLoDHPCmmA8i6J3ka6wK+vxYtk1tLRI03ubaYsORhGwNkwxirQsTHeaEqRowUoxjzNzR3TwO2j+vNut1bI1PL+Tmta8ytflnnJZeZagJz5SSIg6CtfUsVqEJd750gorW1GmdVnGciO6FnAAAF5oGrJAYN3R1k2ReinXIsLCirlx4CYdGpygOZ5c37uTOu4t0lN1dIWLBVyE3XaK3ZT3O+C4OR/ehFWlToqmTXToA3nav110/vXooEU5sfB2FHqd15ZzPWzpGK6/EWEJ1Y4n0nrzRA0A8NKQudjwK2jqRVVxsTvnPFFBdGJDxkounrMZEZ307a3DNDPUTy1idH1buniUe6uj5W15nM286HAHry/KvwNWSWgCnzfX/AVP+LPL6YIvRrITT5h0D1pAyqLw4AUQhccnjXmQb2g+0Y1Xdm35m8gDCSvFLCcTOc/Flk4Uy4u0QDtoG1bFAQAsMhcbfs9ZvagqLnbnyIl2taqrvAKNO2nP+uAlyKJDv8vWAXfUO6mrzexwH1BJi8kUnRadcbPYZ02wB9xo3jZsLEfeSds4Sr0YwZw3kvNIvmvK24JCFblAQCIsqaM9NF08lzg5X8axQEBsUUITy8J4eRFFrjPZIgMAbDhefrHxJ6r1pH1giXC5Q9+1T4zYR+/Q5PURGtt7kDo8kZDn36H9Wkxcz7lUhDGH5G3uVWmmUKVAiOpI7iFNzXjWjRa3RtDSW84TXGAAAAeZiw2/vZlfqlkrHEdVb4Jmy0YKhWUdyIlvQ1Rae6mwd4KKwsoIrBCTE93W/InnLlryhEyP6i03mr/yqkHuJbbUqrJM0iBFN82T/moRRHjVmdqPJc8AbEwyFxuG396cBK9K+6DzLR0KkyaOKOQT9uL/sat6XoQXDPCS4VPVLTuW8Xmr1ZzPyVhuLm91m29lBTe3G01s1T48KcWtDshy0kuf73aGRdeFvHYP7ZfuST0/JeeHRmjbZIZiCAB4rmmI2PCbm2v5VECt58uJbRaBU0RF7sSFFdJy2XRTcad4hIokhENYPGPH4x5M1AsIDuxJLVRzdyfU8f5y4OAW+XCn8VBn3AIBGyWuNVpSLIzdN6nLm9cx3WPGyj3bmvKFWArrEZo/6uWnQrcgAOClYoN8YkCLCc/ZcKcuOvGnw13U/5j/bqZR7rz1fu7c5ats2J122Vi+zJ3ncaKRy0T9/D+P8uU+MfKPQJ7fJKwD2WlHd7byercO+tcPotLOnXZ5KTW7pNhSUHF66TUJpL3O8BsA1Gt2XPDCA0de2UqSrsY0RMQBAHhhefk/nuYJAr8hwJ681h2gc7mvPO8RFa4cpKljupMUcYzQSbq9T3fkfMzVZodIsBicJBIdfu6J+Q42N/FiAwAALz74LDQAAIDMWTexAQAAsHFoyAIBAAAAGxuIDQAAgMyB2AAAAMgciA0AAIDMgdgAAADIHIgNAACAzIHYAAAAyByIDQAAgMyB2AAAAMgcvK4GAABA5rz8L+IEAACw7jRUbNbvEwMAAADWk4bN2VQjNAyfw+cCAAB4cWmI2LBgVCM0HrWenxX8EbG24Qc6VAn4Hj8AYGPREDfaDz/8JXGOJgmew3njjX/SocqJ/7qkixRfi4z7+Fokxieo8bE0AMAGIXOx4VVnz57FuMH++DGdHX+iA/9MXR/00743ddDi9ddfq3qVmhQbsr/WGfy8so8UkeCnnF2fXo7F+Mx0GePz1Al0VCRgAADwfJO5G42XNkeycpsujf9JCMwgnTkzSB+8RzR16WP6Wv9sExtXI+BPS9+fStxuFHbqE0w8oemhEcc5artGhb3iUCFUBQgNAOAlYl3FZuUP87Tyqz2+JfNm5x56h/5EKysqbLPuYlMtbCm1a9fZ/U663V6iOf2Tj3fMdiFocK8BAF4yMhcb74HNelBzXKMnqa29y9hO0hg9pGK3uU9s3SWa1qfUzgMqifhaLgvLhUVk+W3aX3hE/e0DNLmsjpALDbxjAm4+AAB4OWjY0mcXb3b205n3/gd5hszXH/+OvjYsnboTcoNdoD65EMDcJ7bJPHXoU2pnN+VFnPlWHdzcRLsOD9ONAvki1/+YLR7jGAAAeMnIXGz4FTSxvPkWsbZ8/fEQ/Xa5lT54/9dqv4PEuLImZBm5t6SFBGzJqGP0/A3cZgCAl5zMV6M9e/Yj/fTT33TIxXd099IoTZEQmg/2S+GJ4tVXf06vv/4LHaoM7uCvtNgrvNKvRnOvZnMjV67dOhhcjaaXSad1z/VdhqUDAHh5WOelz7+n355l19m/0pkYi8aj+qXP6Zcclwk+Z+MWqxTMlqjt+IRaCn2KXWeLdOx+nnbpn8OotM4fhdgAAF4eMvdLsTjwA5kuVu58rpY5/+F3dPbskL/99o/y5wAcR/Vvgv6G5oXQsLUQmJtJPWezRPOPiVq2VrEcuTWv4oSrDACwgWnIJAi/vdmFXCBwRj1jY26/+aU+wCAqjlTM3qExISrbqn10ZflzmrpXw/kAALDBaYjY8Juba/lUQG3nL9Hk1QmiXH9wXiaRHbTNe3vAzE2a3nuQOio6HwAAgMfL/4kBOTEfNU9iLBAgawKfl0nLxQB8zEmiekzYV7BIAAsEAAAvEw0VG4bF5oX6eBpP8N/trM/DlrHC54EFAgCAl4+Gi40HPgsNAAAbh3UTGwAAABuHdX4kHwAAwEYAYgMAACBzIDYAAAAyB2IDAAAgcyA2AAAAMgdiAwAAIHMgNgAAADIHYgMAACBzIDYAAAAyB2IDAAAgc/BuNAAAAJmDtz4DAADInIaKzbp8zwYAAMC607A5m2qEhuFz+FwAAAAvLg0RGxaMaoTGo9bzo5gb7qK2wQla1WEAAADZ0BA32g8//CVxjiYJnsN5441/0qE6oT/T3BL7CWb1WegxHfLZm6eRAzepv/hQ77DwPysNAAAgc7HhVWfPnsW4wVZu06VLs7Sig+/0DtJvfqkDFq+//loVq9TUZ5aL93SwAjoK12jocJMOEa1eH6BDC/2JIsLHFel04FwAANjIZO5G46XN0fyefntpnnZ9MEhnzojtg1b6bvxj+lr/ahMfVzx9wnqZuW9u16iwt4dGAvvK20hOn+izRNO3HlLfPlNoWMi6qDSrg5qnCw+pZSuEBgAAPNZVbFbufE5f/2oP7XtT73hzF+1680+04pk5FtWJTRN1D01R7skAtbWXaI5dZ/y/+KXjaDNdaS+LBVsk8hjx966BqaBlsvw5Td3rof0hd9tO2hbQlQd0e9TeBwAAG5vMxcZ7YNPFm539dOb9X+uQYGWO5lb+hd70xMciLq54HtBo8SF1FHppl97DIrSptYeGhIWz7WqXEJku5SK7n6ct1yek4JjMjZeIAucz39C87Z5bXqQF2kHbNuswAACAxi19jmPlzgidPTtEZ8eJes+8T+/o/fVibvgkje3NU8GwVOalFcMic4SmDlxT7rN9d6htsETTCzepv32AJpf1wbMl6h8lmi4e0edoa8ghLKszN2k612mJEgAAbGwyXyDwww/P0lskcrEAz+H0l11rBvw6mzfeeF2HKoeXOrNoKHi+Jh8QBfk76VVkQmDarjbTjaFmGtWr0XjeJ9+qFhzMHxV/N6nVbNPq9DBYkQYAAJLMxebZsx/pp5/+pkMm39HdS6M09+scfdD5lt5H9PXHQzS1ObjP49VXf06vv/4LHUpLeTWav7qMheT4hP7dZCcVJoep23SB8bF3hdCMiuNtsYlcLm0JFwAAbHAyd6PxSzXdvEX79m+llX+fpLveggBh2Uz9QfyyOSw0THRcMcx+TnRKrTDzJ/xb8/6qs+BmCQ3Dxw506kBalmj+sRC3lrd1GAAANjaZiw0/F8MPZDr55ft0pvdfaOrSkJqzuTRLb0U8Z8NxVPUm6NaesIB4sNVS9RsE+GFPNX9jb4PXv9HHAAAAYBqyQIDf3hwJCw4/Y6O3qAc6Y+NIgVzWPPxAh+JQImI/OxNmN+Wd1hFbULBoAADApCFiw29uruVTAbWeXy/GjrPlkuJtBPKZHMKDnQAAoNkwnxiQr5qJeo+ZA7XyTAf0+9FiFwjYiw725unGUA9t0kEAANjINFRsGBab5/vjaaaw6F0AAABqouFi44HPQgMAwMZh3cQGAADAxuG5eF0NAACAlxuIDQAAgMyB2AAAAMgciA0AAIDMgdgAAADIHIgNAACAzIHYAAAAyByIDQAAgMyB2AAAAMgcvK4GAABA5uBFnAAAADKnoWKznp8YAAAAsH40bM6mGqFh+Bw+FwAAwItLQ8SGBaMaofGo9fyamS3R4PUlHQiS/nPTtcIfbetyp2N5ggbbB2hyWYdjiEwvf/xtcIJWdTCEvEaJ5nSwPvC3g6qJU326O6pO0jI3XHscAIB0NERseI6mVqqPQ3XSbaJzqnjzOuXWTmopnnN05g9otPiQ+vbt1uEY4jpr+VsXlWZ12IX81HQPHTsc/tT06sxNms71U/dmvcMiqlM1hWf1ySOi7c0pvyyqOntnmRlbbH4ku2l/boL6KxIcrs+TNLY3TwVHWaRnibbsyxMVj0BwAGgAmc/Z8KqzZ8+S3WArd0bo0r//md7pHaTf/FLvtHj99dfqs0qNO/fuRTp2P0+7OMyj+qvNsZ9xlp+VvnVQHNNMo+2is9P7Y8ldoJkBLUT2NS3K8dtpUJ+hLt7TQZ+dVJgcFgIT9TtRR+EaDckOWR3Dn7LOPRHXWeinGy0j8n+VvvLvkV8nDaQ/6Wumdnzq+FRlZhL6tHZ0Xm3KeVdi2z8q/6wIMw4AQG1kLjbPnv0oBOdvOhTBym26NP49vUVPiPZHi82rr/5cCM4vdKgCZEdZomkdTIWzoztHdIo7eC+c0EGbODrrxM5XitXbjuvw+SO0jcVmSQjl3c6yqElU2qYOhDtLKWq+yGgiy6eHRiab6Yr9W66H+kYnKhYb+/hogXXhCY1IU4Rg+8dQsO5YbK60VCYc1ZwDAIgmczcaP0cTz3d0d3yW3tr/P+ltvSeK5LjiYEtgimbui20yTx3ckfLfvF3uUeJihkM0UfeQJzSC2XHZqeVk58mdXITbiDtydivJDptdRuLvwUXKua4rtwvU56U1ICAuRCd+/BEVemOO866vt0PFh0SjJ8vuruEHNDcu0sbC5qXBLx/RqW/uoaHAPk5Xp4x67Hg53uCWxvpYoulbD6nvaAqhkXnQInK/k2673G7eMdtFPlKJFwCgkWQuNt4Dm1Gs3Jmkqc3/GmnNmCTFlQnsYvM6UX9inTv5iXQdpauz9jrDVtF5HrhJh8x4pQVgiFocM3doLLeD5s+7J/ZbtopRuXd9sd0oCIskt1P96Ilc7yJdYRfT48VyHEuLNL23mbboYBR9wlIJCxSHr1Fhrz4oAOcvKEjRguUJijhHCHULX4vLbflt2l94JES7vCCCrRAWc3mMQ6B3DUxJC0XOUTmvZWx6kYR3DgCgPmTuRltd/bP+y8Xv6bdn/0i/PvM+vcMWzqVR+ibGjcZs2vTP+q8KiHQTxWC50QLuJxYgITZJBHz+Mg3KjbaF42ILIxHuvHtpPs6NJkRJzkmQMT9ku7F0/kmkp0DnynM2tw7SiBC7/lsirfd2+PNJ0a62mDmbwO829vGO8ytEptErw5DLs1I8F50S0GrTBACIgcUmS77//i9rKyt/cm53//e/rZ39P/+hw/+x9snZf1v7X/83fJy3cVxV8e0nayf2fLj26bc6vPbF2sU9761d/FIHbb68uPbuiU/WVnSQWfnsw7V3P/pCh2yern16IiY+RqbhvbV3Q9dV5ybFzecFNzM/6pgTnz3VYSN/Vl7MfHz1kZcWszzsuDQy/RfXPhXnn/jsE3l8OE325qUxHL+ZX5kmq7zj4HSr+C+ufaX3VY1fL2Z5AgDqzTouEGCr5nf0tQ4F2Uq/kdZOkKoXCFhUNjGtcI72fSxLwiRgBel5EB2SSIvgJnVpKyWMK+6gZSOR13mkV6i5LAc9euc5DUceytYRhePWlggvaFDW2jfhYxItG308KSsr2cr0VtvpoLbO0lqnvoWS0gp146gvAEBVPDdLn+VCgQQ3WjVLnwPuloopd3i+2PQupu/0TPeO0RkTd+xpluLK8/fQdBqxEZRXUBliwKvVIjtbo0OXnTJRofCIiqYQ6/1qVZrpRqtSbIz0esSKvycWXBaniIqR1/CIEf4Q8ekCANQRFpus+f77PzvdYsEt3o3GcdROjPtMu1NC7iNNfdxoQbePdAdZcYZdSq64OR9xbh/rd523QBwhV6F2b8WWj06/9zfHIV1Q7s2Px5F3k9RutIR4FCnqwiepHAEA9aIhbxDgtzcn8xbt+yDaqkkXRxw84lWuILkCyl8BJuDRs55Ad69AUm8KqCvimtK60cuQedk0WyaHijtopKbJbsHyIi3oPxn5hgHx/9hVvWqNrRB2uZ2q7joyPm+1Glsc3oo0f+Pl2wbe6jYuZ3v1l9ik5XmvRIfs3+JenwMAeKFoiNjwm5tr+VRArecr+DmZcofIq7H8Tu34hPTxO4VGdpAnaUEI0QixMFTzLi8Hrfly53y5Rwqgcq1N0G3H8zrBJcLxD4QqcdlB27RraNPhYXUddkPx+UJYWwLLq/V8Dj/HItMS95419XxMx4E9qYVq7u6EOt7Ms7HdKOx0i1atopuEJcoAgOzIfM7G5Hn5xICcDNdzJnLCe+u4Ma9hTUyzX3+YKO9NqntzCKnoCT6BL98IwBPwlliYr7UR+OlL8wYBkU7XvFRwCa8WE37QUs8jPeVrPOa/9et39H7u3L34AnHIfBONXCbq5/953iShLOT5TTyXE7cAQl8vzYKNChYJBPNvwmVnlL9V9gCAjJDOtAby448/pZrD4WP42Nopz0WE5hJc6PmNuiyrfR7w5lVc8006r855Knneh2ufPvTKQ8VRXi6tj3HOtZTnxuLnuhTrN2cDAGgUDbVsTPBZaAAA2Dism9gAAADYODRkgQAAAICNDcQGAABA5kBsAAAAZA7EBgAAQOZAbAAAAGQOxAYAAEDmQGwAAABkDsQGAABA5kBsAAAAZA7EBgAAQOZAbAAAAGQOxAYAAEDmQGwAAABkDsQGAABA5kBsAAAAZA7EBgAAQOZAbAAAAGQOxAYAAEDmQGwAAABkDsQGAABA5kBsAAAAZA7EBgAAQOZAbF4EZks0eH1JB2weUKm9i0qzOggAAM8hjREb0Vm2DT/QAQfLEzTYXqI5HawIee4ATS7rcBycjsEJWtXBSli9PlD1uWWWaHKwyxeOueEuq1wihKOpmag4HlE+uylX2Eljd2PKN4BKQ+AaVZW/iie2Xh3IcnSdw3UTm4Zg2QVI3Qa4fMPHcT1Ei7mb2toDp8Od18jykdRhYCHLStQbbzL9Rnuo5T6siGrzn/x7LHY7SWxzmojBXigtKcqPz6m0rUVdn6mpPBrMz9YE+u8M4QZ9hIqUpxtDzTTafpLG9C+x7I0+vu/yFOVbdbz39E6fHhq5n6ddOuTBncqVlms0dPgb0dgT0pC7QDMDu3VAVeqhWwdFenpoE+/ghtVdomn5qwPrfAk37uPkp43T00/mcXwTniSSedO7NOW0N+k9JnzeHdrvyHMYVWbzR41ryLws0jH/fD7mHNGpYereLHe4kefdpK7JuONUniLLWtZxDz2NzZ8glMYysm4W+sPlbRGqQ480+ZB1N6EDSeykghmXI+3hulfE5cVL/8iBm9RffKj3xsH3QSfdDpS/lTazPTQt0dzMORm3ur/EzxXl20bfh3XKP+P8XcZv3Yu6XZXrWfcV271rqvDUgZg2p1kV8Y+K9rHNah+htDjyGUCW5SNd/gn3hcCvA3kPjYSuH9dfhIhLmy6/ljTx1ECDxIZxdHIeSZWk4QZ6e1/5/HAHHNeAzAqLqjyFq0F7N3pQbNxpdt8w4bSFb7iYxiOvxx1iP813Jwilhy94Ztk76iGQF/V7cbu4WXtFXjfrcEjQk+kohOshdWeh6bt8jbZddV3f6zSj0xe8vpfvqPhcGIMW7iiuNoeFKoSjbTnbirsNutsOo9LvbNt+23C3Zx/ncV65GO3BGhSlxxEXU1P+o+tXwqJyShj+VvsNlZOVJ3mdJME2BctRJqG0OvOpSVtHEchryf6ngsG6OeCNS5ugHH9S+66eBopNmVQVLSgrO8ONszx6d42MQpVvEPzN3dA9AsfKRmaN7PwGXoFlYzRW4rSP6v0x2J21LbbpMTsB++YVHepkM12RDVGNghecnXRl1zUHAnH13VG4QF23Tor0GB174MZ0Xd+ovyVRrnc7rTp3dDhVd6AaVzuIJNmyYWS5WDd4ZBs2058yLcH7RxDR4VXfrmwi2ko98q9x/m7EL+8t22KSv/O9qtuYLr9Q+fg42o/cp6z9bePp7t+gdehZNOq3yilfX8URUdZRBOqA758UguXyztQCi8268+0nayf2XFz7SgddrHz24dq7H32hAl9elH9/9dF7a+/uidm849e+WLsYCn+49um3OmgRuJZG7jvxydqKDselOXz+07VPT4jrm+cLZPoDx6l0XvxSB6uByyaULnV9Fa/5t0bmhcvMKJMUdZIWszxCf+t64b9PfPa0vN8vK0d6/fqLqkd1jhdfuPx1e4jdrHi5XK36c+NIU2RZ8rHB/Wb5lLHSb6dFxm9es1xmfhlXtZXjjL7X3NcNUGP+4/Igr+XH/3RtRaRFpdWL1ys70b70Ma408jl+e3HeQ2FCaXXm08ojH5OqHSUQaAMR5c7INAXLLLIdSRztt078N6052WGOwoRS3mgZiRzlTrfbo7Wyq2T6ljjn3klqkyMKHqEIxR02Rv98HcPNoSwfxer1EYeKPxSWSRcVdShETv8fywT1h9KsMc5fvX5OWRJ7VbgirPJTIw01MnHO7dwVx4rjKh+9G5YFs7QorbZjKmSMDtNgxcWMenXHlP8uW2/91NJ+jibb+mlezhkMJ5vzM3doLLeD+s5P0KrD/G/Z6lk141b576b8fVF2OpSaeyU61F7SgThEu9V/xcPpCI4cny48pI6Wt3VI4Ww/jrRMW+257yjRpsPDNHNY75B1GLZs2Foo0mljFB9BaKSrLMzqSZd/Mw9uy0b/T020SeRr08AF6hPt7cr1XhraKuqe54q1q42P6R6akkeb1reHH7+Vruox8yjKS9xDJNp8Ytv2iLr/tWWWGM/mHhq632NZNppWUS4HRH6Hm0P9SvUWWDTZi43I0IzIoKpEq/GnRXcW0ixtUoWWGlHIxaLokHIPLcExXB1WRXhpdcLHjjfTUC8HHJ2qIHC+vL5Ie24njT3W+yrBKj+FaMCTeZHmLmozOwDRMPtHOV/JN8rC1QFqu8eiL46/fFDtNFh98kh0bgdpiw77jbYKvDqXeeCBRk40cjkfpA+Q8Ko6okPdorGzmzKNa6BNlI2IlzuN8g1jwzfmo2D5y/pOEk6jfXiEJp1d1NoBW+j2Uyj0UPGW3seYaZH5MUVEu1j4z5RML3wj/vU6Xc5D2gUnGeOsK3PgIu7ByWb517xoX+bCiT4ebPD9MyQCIp4yqlMd43vHFti20zSycITa2vW9bXb2qeo/mrlh75ok6kcMDHxXdhSqDYbu/1kxyOL/j3cF+7R7wbBrzpTx70MfszwFfrzu/q1ashcbJ7qydciJX7HcWZgNJch0UTQMYzgXGO2xdSFG6C2X87RfjPjL1+PRhjCLIpCdo/47AI8mz3O6uFPbLTpftdvGPH915qa4/jDlngxUJzZRyM6/WZZj22NOUzONinLiBhY1KhkzGmdH4bS4Cb2GuCTKWwhVwErjhl79jRVAdxg8ortROCcauijHUa4no0MXN7V/A8hR+2KgoZtpV4hz9V+7Bq5RQXSug9e9m+sbmucbWYzs+cZcEHkt0Lly+VcrnHW3bGwe0G1x07dcNjoI2X5FGVEp2gqviKBFLzukrTuIbi3SqmjT8n6THXGecmwxRLSlbHDk368rJaDl1WQGWki2pRrIcv54vm+KZvy8LdE8t40Wce9uFtbRwBTdaBEd8uCEuK+MwR6LfUj8rI5a4HtoDHGSnhZxXN9llXa2rrrlXwYy7hSLCPQAtEza+RvlieFB+4zfd8WUa51ZJ7FRRE3Q+RXLyM7iAhVunbRGaqqBJLrRRMVwtczd5YDAHKlYRLnxOmb0SEA3Hl6me8hqYG54ZDAsr7/6RO0JXz/cWMsjC6MzdsKieY22icZyqF0EOX32SMa7OXhEJUXShXIthBq/JMXAIApxTeU23SHKYUpbjWq/Z7ZPXp+gkhAfjt9vDzrN/e08qXpa7LDbiuowyoj0HxUj/+PshrPKS9T/kDhPXrdWUo1s7bRVwPIiLYg2c8y8J3T7JfvZmpRutHB7c7Sp5WbquLdIT0W5y0Uvfv00GFf+JbpDZHeYmS6jc44a+IUxBpqBshH3qj/4ivHAGAMV1U8lrVD10r6TOoTQNxw7j7alsvw5Td0TbeJU9vW9rmITHq0a7NWuHdlZiAozXQi1YI0KuMEUF8TIbpTdRjvomBjJBCpDVNYgnVYjcp2GXWLkI/QngMv/68S6fu3oUTwjOqDR2Z6ggNfg/lLwzSk6eh1i7LwqYY/qoMRNu1U0+PYuHWYcAisItgevUxR1r/fEIsp1JCfSNbNE3bKT2EnbIqsijYBaNybXG7tjDDjf4VVc8Vazj+iYSjN7KG+0l7lx1dFblwkTakPeaN0TEdXBycGZeazunENs3kNdbNmK0QYP3kKupSyoIP9zwzzy7qE+YQ27LEtbZJ2dqrwP9N8eNd2Lah6548Dp+MEHTwGwSOolyzUj69C0rAwsN5oaHOk8aiFk5P1qW2OhMhSkGlylZ11fV6PMufB2o7BTHxGH6mSlG42fhmb1lqM99XR0mqWJXOhyYrSXfb4sNLz013oCWDRIp4Bw5dnHVgx3EuU4WPgqehqYRy3caXKj0OXGHbbzaWN5rH5yPGmLfTJeuzq8yfco5PV03uRN7arrC9QnRcX1W5xF54YHAYlibxDV/mYm82IUamDkhduMKt8l2rIvTwuivENP9PPxMfXIcbSdFwaemVZxjmyzoydTvCGAxcS4rvTh76BtfnkpS9XlNXAhO3MesHBH76VJtm/rbQu8yCPQVqqzeCvNvxrcdcq/A3Um68lqP3bdSVR5cb2V7zG1L1xPfE+meBuFtgi62hLaG7f9OnbYSjSN/MrtGhX2OtpzxHVleYrfR3iaga1Y4xzZ9+r+pK7pFjRebESjGryuFJY7xmDjVVvUajV5vKfq8gYzGtplMXr3CklssiCjkDeSyxLhUSkLTvLrS3guZjrXGRg9+cKnt9hOQ6aBn2nppC26YW86fJoKj/mGThAxnX4WWDkS1Y2CTX9uLDId9k0U2eE7tphGJic5RTnnUnZkJm4xVXMIZrklll0S0h1TL0SndJXLuTc4UhYd+qZWceOLzm1B/C7FWYvSZFOnqkc7r0a7C5Qx7xd1yZ2FGjAkdXYsJheku1WWl2wHdvpSINPLAzNhCXAnPTpSvq5cjWgKmMDqmNRWwaCgbvmvDLmaT1gXhcC9rgSZ3bz+/SbL4w7tnzxIU6JNRrdBIUjS3dhf8YCoOh7QaESfWDWGuHv3Gw8CpMs7dP9rYea2Frp/09NYseGMXW0Wla5Wj0SNLKW6Oigf30vz4ganhMq2l1AyclQl/apRo2DlNuIJ5ehOX1e+yI8pSrLj13ngLWpkKTtd0Vj59RBDh3cbq7L0DVB4RP26AUhEw5ACPHpHpMdr6OrGt/Mgfc0svPLYOqI7in65GCFajDzUarbm8mq2SNyWjV12wYFJ/IhaDgTsjrJK1LLjHjpmlLNauaXhkaYuD7XsvFO0yd2iHsVo87HuvGXHPUH9rnbHHZyoT148wXnm+hvJsQAnDDhkO2XLUKEGOmk6aS4X3XnIh0S5vPO0S+SjUFAPKvN1Zf0ZgyllXST59Q2Xrkkm+U+JaLdFce/0HXW3WXm/aJebV39cFkOibOm4lwZ9v/O8lgjJRyl4YNuIeS0pgOpB6xF2PycNRNNiDj5Ff8H3l/IGTdBtS2TlPcALCNiCEoOoageCDXqDADduc7UEm6rWcyJcqOwK0/gT/y7ksdbT4LyPFwgcXaRDOh4WJy9+FpnIeQXuSEMTe0FYILzJQF4goOIi5fsXDa+wvURTMXM2/vmBV2tE4x+v88PlwQJ4qCjuy9hFAzaqrKtxd8iRbO+i9hE7/OAesvzCfmRZ/hSs18pgITpNdN5eacN5Ks9RyLKyRn5m3TNm/fkrrvRvbiLyG5FXBac3XDfutqfuiSJPzobO0b9JX7/uJHX7Dr4XzUqjdQ95vwfeWMF1GtdJGnHYZegiVPbcCVuDkbrk39VnyLrgBQKqjfhLiePyGFt/jjrXx7MYqvuPF7vE37tuHOm3cfVrfN4wUd7LT6iO4xD5kW8H0fmV5aL7LPm7xiovWV/cXvR+Wcfy2aa3rX68MtbldTUvFEbl+h2+uQJF4OrsFBEdViWIxh6YSK20sdV6fVB/jA4sckDFx5wXh1gd90tBvfIv40mxVLgW+Br8XJ3XGeu0u8XKIiC8brHxO3aPpMHAumAMzmpIH8QGAABA5uDjaQAAADIHYgMAACBzIDYAAAAyB2IDAAAgcyA2AAAAMgdiAwAAIHMgNgAAADIHYgMAACBzIDYAAAAyB2IDAAAgcyA2AAAAMgdiAwAAIHMgNgAAADIHYgMAACBzIDYAAAAyB2IDAAAgcyA2AAAAMgdiAwAAIHMgNgAAADIHYgMAACBzIDYAAAAyB2IDAAAgcyA2AAAAMgdiAwAAIHMgNgAAADKG6P8DXIeUJM6bVcgAAAAASUVORK5CYII=;" vertex="1" parent="1"><mxGeometry x="120" y="570" width="340" height="178.69" as="geometry"/></mxCell></root></mxGraphModel></diagram><diagram id="tE0Xvno0r7OPx67y9qSr" name="用户要求连接问题"><mxGraphModel dx="1942" dy="472" grid="1" gridSize="10" guides="1" tooltips="1" connect="1" arrows="1" fold="1" page="1" pageScale="1" pageWidth="850" pageHeight="1100" math="0" shadow="0"><root><mxCell id="0"/><mxCell id="1" parent="0"/><mxCell id="pdnPB8LrAb-UpEsbpM2R-1" value="小飞" style="shape=umlActor;verticalLabelPosition=bottom;verticalAlign=top;html=1;outlineConnect=0;" vertex="1" parent="1"><mxGeometry x="140" y="180" width="30" height="60" as="geometry"/></mxCell><mxCell id="pdnPB8LrAb-UpEsbpM2R-2" value="浏览器&lt;br&gt;建兴智能助手" style="rounded=0;whiteSpace=wrap;html=1;" vertex="1" parent="1"><mxGeometry x="425" y="180" width="120" height="60" as="geometry"/></mxCell><mxCell id="pdnPB8LrAb-UpEsbpM2R-3" value="" style="endArrow=classic;html=1;rounded=0;strokeWidth=1;exitX=0.5;exitY=0.5;exitDx=0;exitDy=0;exitPerimeter=0;entryX=0;entryY=0.5;entryDx=0;entryDy=0;" edge="1" parent="1" source="pdnPB8LrAb-UpEsbpM2R-1" target="pdnPB8LrAb-UpEsbpM2R-2"><mxGeometry width="50" height="50" relative="1" as="geometry"><mxPoint x="400" y="350" as="sourcePoint"/><mxPoint x="450" y="300" as="targetPoint"/></mxGeometry></mxCell><mxCell id="pdnPB8LrAb-UpEsbpM2R-4" value="127.0.0.1，root, 123456, testBase" style="edgeLabel;html=1;align=center;verticalAlign=middle;resizable=0;points=[];" vertex="1" connectable="0" parent="pdnPB8LrAb-UpEsbpM2R-3"><mxGeometry x="-0.1568" y="1" relative="1" as="geometry"><mxPoint x="17" y="1" as="offset"/></mxGeometry></mxCell><mxCell id="pdnPB8LrAb-UpEsbpM2R-5" value="" style="endArrow=classic;html=1;rounded=0;strokeWidth=1;exitX=0.5;exitY=1;exitDx=0;exitDy=0;entryX=0.5;entryY=0;entryDx=0;entryDy=0;" edge="1" parent="1" source="pdnPB8LrAb-UpEsbpM2R-2" target="pdnPB8LrAb-UpEsbpM2R-12"><mxGeometry width="50" height="50" relative="1" as="geometry"><mxPoint x="400" y="350" as="sourcePoint"/><mxPoint x="485" y="350" as="targetPoint"/></mxGeometry></mxCell><mxCell id="pdnPB8LrAb-UpEsbpM2R-6" value="HTTP API&amp;nbsp;" style="edgeLabel;html=1;align=center;verticalAlign=middle;resizable=0;points=[];" vertex="1" connectable="0" parent="pdnPB8LrAb-UpEsbpM2R-5"><mxGeometry x="0.2727" y="2" relative="1" as="geometry"><mxPoint x="-2" y="-10" as="offset"/></mxGeometry></mxCell><mxCell id="pdnPB8LrAb-UpEsbpM2R-7" value="&lt;div data-docx-has-block-data=&quot;false&quot; data-page-id=&quot;S8zudVd3GoOT5fxLh2EcOCG3nLf&quot;&gt;&lt;div class=&quot;old-record-id-S8zudVd3GoOT5fxLh2EcOCG3nLf&quot;&gt;魔搭/其他第三方平台&lt;/div&gt;&lt;/div&gt;&lt;span class=&quot;lark-record-clipboard&quot; data-lark-record-format=&quot;docx/text&quot; data-lark-record-data=&quot;{&amp;quot;rootId&amp;quot;:&amp;quot;S8zudVd3GoOT5fxLh2EcOCG3nLf&amp;quot;,&amp;quot;text&amp;quot;:{&amp;quot;initialAttributedTexts&amp;quot;:{&amp;quot;text&amp;quot;:{&amp;quot;0&amp;quot;:&amp;quot;魔搭&amp;quot;},&amp;quot;attribs&amp;quot;:{&amp;quot;0&amp;quot;:&amp;quot;*0+2&amp;quot;}},&amp;quot;apool&amp;quot;:{&amp;quot;numToAttrib&amp;quot;:{&amp;quot;0&amp;quot;:[&amp;quot;author&amp;quot;,&amp;quot;7168305751084367900&amp;quot;]},&amp;quot;nextNum&amp;quot;:1}},&amp;quot;type&amp;quot;:&amp;quot;text&amp;quot;,&amp;quot;referenceRecordMap&amp;quot;:{},&amp;quot;extra&amp;quot;:{&amp;quot;mention_page_title&amp;quot;:{},&amp;quot;external_mention_url&amp;quot;:{}},&amp;quot;isKeepQuoteContainer&amp;quot;:false,&amp;quot;isFromCode&amp;quot;:false,&amp;quot;selection&amp;quot;:[{&amp;quot;id&amp;quot;:1,&amp;quot;type&amp;quot;:&amp;quot;text&amp;quot;,&amp;quot;selection&amp;quot;:{&amp;quot;start&amp;quot;:9,&amp;quot;end&amp;quot;:11},&amp;quot;recordId&amp;quot;:&amp;quot;S8zudVd3GoOT5fxLh2EcOCG3nLf&amp;quot;}],&amp;quot;payloadMap&amp;quot;:{},&amp;quot;isCut&amp;quot;:false}&quot;&gt;&lt;/span&gt;" style="rounded=1;whiteSpace=wrap;html=1;" vertex="1" parent="1"><mxGeometry x="50" y="405" width="120" height="60" as="geometry"/></mxCell><mxCell id="pdnPB8LrAb-UpEsbpM2R-8" value="" style="endArrow=classic;html=1;rounded=0;strokeWidth=1;entryX=1;entryY=0.5;entryDx=0;entryDy=0;exitX=0;exitY=0.5;exitDx=0;exitDy=0;" edge="1" parent="1" source="pdnPB8LrAb-UpEsbpM2R-12" target="pdnPB8LrAb-UpEsbpM2R-7"><mxGeometry width="50" height="50" relative="1" as="geometry"><mxPoint x="310" y="430" as="sourcePoint"/><mxPoint x="370" y="380" as="targetPoint"/></mxGeometry></mxCell><mxCell id="pdnPB8LrAb-UpEsbpM2R-9" value="HTTP API" style="edgeLabel;html=1;align=center;verticalAlign=middle;resizable=0;points=[];" vertex="1" connectable="0" parent="pdnPB8LrAb-UpEsbpM2R-8"><mxGeometry x="0.1153" y="-1" relative="1" as="geometry"><mxPoint as="offset"/></mxGeometry></mxCell><mxCell id="pdnPB8LrAb-UpEsbpM2R-10" value="" style="endArrow=classic;html=1;rounded=0;strokeColor=#6F0000;strokeWidth=1;exitX=0.5;exitY=1;exitDx=0;exitDy=0;fillColor=#a20025;entryX=0.25;entryY=1;entryDx=0;entryDy=0;" edge="1" parent="1" source="pdnPB8LrAb-UpEsbpM2R-7" target="pdnPB8LrAb-UpEsbpM2R-12"><mxGeometry width="50" height="50" relative="1" as="geometry"><mxPoint x="320" y="540" as="sourcePoint"/><mxPoint x="570" y="590" as="targetPoint"/><Array as="points"><mxPoint x="110" y="560"/><mxPoint x="416" y="560"/></Array></mxGeometry></mxCell><mxCell id="pdnPB8LrAb-UpEsbpM2R-11" value="CMD" style="edgeLabel;html=1;align=center;verticalAlign=middle;resizable=0;points=[];" vertex="1" connectable="0" parent="pdnPB8LrAb-UpEsbpM2R-10"><mxGeometry x="-0.0502" relative="1" as="geometry"><mxPoint as="offset"/></mxGeometry></mxCell><mxCell id="pdnPB8LrAb-UpEsbpM2R-12" value="&lt;span style=&quot;font-weight: 400;&quot;&gt;(Python Flask)&amp;nbsp;&lt;/span&gt;&lt;span style=&quot;font-weight: 400;&quot;&gt;建兴智能助手后端&lt;/span&gt;" style="swimlane;whiteSpace=wrap;html=1;" vertex="1" parent="1"><mxGeometry x="347.5" y="360" width="275" height="150" as="geometry"><mxRectangle x="347.5" y="360" width="220" height="30" as="alternateBounds"/></mxGeometry></mxCell><mxCell id="3h2fL-NuVmTWSyPItM19-2" value="有CMD" style="rhombus;whiteSpace=wrap;html=1;" vertex="1" parent="pdnPB8LrAb-UpEsbpM2R-12"><mxGeometry x="112.5" y="35" width="80" height="80" as="geometry"/></mxCell><mxCell id="3h2fL-NuVmTWSyPItM19-4" value="" style="endArrow=classic;html=1;rounded=0;strokeColor=#6F0000;strokeWidth=1;exitX=0.25;exitY=1;exitDx=0;exitDy=0;entryX=0;entryY=0.5;entryDx=0;entryDy=0;fillColor=#a20025;" edge="1" parent="pdnPB8LrAb-UpEsbpM2R-12" source="pdnPB8LrAb-UpEsbpM2R-12" target="3h2fL-NuVmTWSyPItM19-2"><mxGeometry width="50" height="50" relative="1" as="geometry"><mxPoint x="82.5" y="220" as="sourcePoint"/><mxPoint x="132.5" y="170" as="targetPoint"/><Array as="points"><mxPoint x="68.5" y="75"/></Array></mxGeometry></mxCell><mxCell id="3h2fL-NuVmTWSyPItM19-5" value="" style="endArrow=classic;html=1;rounded=0;strokeColor=#6F0000;strokeWidth=1;entryX=1;entryY=0.5;entryDx=0;entryDy=0;exitX=1;exitY=0.5;exitDx=0;exitDy=0;fillColor=#a20025;" edge="1" parent="pdnPB8LrAb-UpEsbpM2R-12" source="3h2fL-NuVmTWSyPItM19-2" target="pdnPB8LrAb-UpEsbpM2R-12"><mxGeometry width="50" height="50" relative="1" as="geometry"><mxPoint x="212.5" y="140" as="sourcePoint"/><mxPoint x="262.5" y="90" as="targetPoint"/></mxGeometry></mxCell><mxCell id="pdnPB8LrAb-UpEsbpM2R-16" value="" style="endArrow=classic;html=1;rounded=0;strokeColor=#6F0000;strokeWidth=1;exitX=1;exitY=0.5;exitDx=0;exitDy=0;fillColor=#a20025;entryX=0.5;entryY=0;entryDx=0;entryDy=0;" edge="1" parent="1" source="pdnPB8LrAb-UpEsbpM2R-12" target="pdnPB8LrAb-UpEsbpM2R-2"><mxGeometry width="50" height="50" relative="1" as="geometry"><mxPoint x="320" y="430" as="sourcePoint"/><mxPoint x="680" y="120" as="targetPoint"/><Array as="points"><mxPoint x="680" y="435"/><mxPoint x="680" y="320"/><mxPoint x="680" y="210"/><mxPoint x="680" y="80"/><mxPoint x="485" y="80"/></Array></mxGeometry></mxCell><mxCell id="pdnPB8LrAb-UpEsbpM2R-17" value="WebSocket&lt;br&gt;命令执行中，请稍后" style="edgeLabel;html=1;align=center;verticalAlign=middle;resizable=0;points=[];" vertex="1" connectable="0" parent="pdnPB8LrAb-UpEsbpM2R-16"><mxGeometry x="-0.2013" y="2" relative="1" as="geometry"><mxPoint as="offset"/></mxGeometry></mxCell><mxCell id="3h2fL-NuVmTWSyPItM19-1" value="" style="shape=image;verticalLabelPosition=bottom;labelBackgroundColor=default;verticalAlign=top;aspect=fixed;imageAspect=0;image=data:image/png,iVBORw0KGgoAAAANSUhEUgAAAWQAAAAiCAYAAABobaPlAAAAAXNSR0IArs4c6QAAAARnQU1BAACxjwv8YQUAAAAJcEhZcwAADsMAAA7DAcdvqGQAAAzgSURBVHhe7Z3Pa1XHF8BPv/+CICpIIsWVhOCiiRKUxroJSHCVRZNFMYssKiRxJ2aZL9+dSWg2LiIuki6yaWoFN9aAEtQsajW4EkmCYKzUv+F9zzlz5t6ZuTNz34sv+sDzgWmce+fOzzNnzpyZR79pIKAoiqJ8cf4jfxVFUZQvjCpkRVGUDkEVsqIoSoegCllRFKVD+LoU8oc1mF58LpGAFwvQN70GHyV64KTKozqeWYAtiVZ5DgtnrsLdDxJtC3twd7rdeSqK0ipfl0I+3A+Db67BwguJF6BCurMGAz/0wyF5kianEOndIEzf25O4z8d7V6EvtiC4ynlvFzbOdsExflEHKdJB6MMycyFVn5Kj2HaA2WFVyoryJTnQa29bi4MwviwR4uwk3J+7XCg9UlBDs68qz12KNGM3YfPqaXxCSuhHmH1i3rsMzPwKc5eOSiwBKb8JgKWnI7CdyKeCVz9Suktw4u4iDB/mBz5F/pPQI49cqE9ud2M9j69C350uuP/TLgzRX8m/eJ9sh1u+6Yv1H9Lp/fzSfZfncrI9BI/RzriMj6EYN6Ecm/o6jN5ah8leiRC0axhegA2J5uSFSJcdJ1b/zwWX/efFbHssMdkI51il71hersGKxIhqGoeir0/BjCfjLcw7ngNrEkGKuRuBy3sAg6n5tE+i/RrWyyHbJ58TUsht55/fGlP93ze+m/qt8a88Il7+gs/6f278/o+J//vHzxinZ9835v82z3zeNX6fMu+/++Uv/1mQd6PxV2Oe8yrzT0H1cMuj+NQf7yRWB5Vjy3DqlwuVuiJ/z2faEAYqL/Juar4xj+Xn6u63zdS3kp7q0j/feCnR1pB6FeNjx9nNz02TqAMSygfDdauOV6q++bJj1L0/WHgOxOQjROZUOJbet2Ea6TuvryP9WeLKWDiPzLv4dyVmTrvf1vQv1zks69OJ9muq7dk++bwcgEJOKUzCf2cHb4qexQaMOwqVDk2y4n3z+TcFC0Q5gX0F5uIKqw3yXZCHwdSlHOTY907AOr+sCBF9E5sY9pm0N5afE8JJHLYv3eY0RvE5wY6PKIW40FO943Wwi7P/XWoyS7vD56mJFalTsv6fmbxCro5v0W9Ff5qoxfSjkUVuY6Rd2ef0bTTvmCwG1I69xF34m5p890FLCjklT1+A9vuQX6zytmb0p9gW7CgMz63D5vV+iRMn4QqmheVHlYOsrce4vRg7DxckXg/mf30SBp4swHLoJ+bDMvGrFodpuA373wLAzEhyO15yGiafYt2f3oRR3s7Rv2Ubf/gyzN0CGHfzFVdCuQ2y32O4dRlGx7DNDLkD8NlcFzykbfaTXXgnb+DDLuxg/5yo2crRlpHzrdRvHZbGJJHHe6xf6WOmLe/G7I9F3A9xv3LPVVverzBzVh4S5APHNl2Ibv9ewfaekQHfhfAclsUt5W0bXzzCrTa2ZSTc7pLP+1RFZlhezk7CWFg2nR1gHVcel/77ZP1DaJtLffDCyk954ErbYrevYr76dBqSkUHjWkF5HaL3lUNemS/FuJZ8fPsa23oRBqKy8Rq2P+zBsRH8LuUqeLPrlUX1HF8muUm4plgW82ytLsBGrP97R+D+3RswIFEL9w27R17B7DD1jy9r5I5x+84/+zH9V7633zbTr81gzoPK/MOD9lT5Jc3IR0jbFTILSnJCCoeP+sq69zwK2xrc9ir8HB6iohg916Jf73AXdOOfnbdB40lpkmCjMiz48AzWcfFwlVFUOeVuZtg05JuyAnDG+NrKfOxgySA/Pg+T5zBKvlBS5DTYpHzOnkKhpclEaZGWDvjikOKp+k+PyEQ3yshX6GHYj2/PaYNg5OIUnIi4crcWyceJC1OgPMw38QXp0PGT+F+3nD3YfoN/vu2KGgInvsU/gRJqHlQYE7twhfvDKCxSFkOzJ81iyuEmdNN4O7KST2OU7f0ZXFhIDuh9E35kD3fxFt7tkO+c+gznWGzcUGZJxj2DCY2VWVRgAzM3asd6e9VXMqWSdPrfnRcUFt9jXar1OXRpETZxARgoDAgra0bZjb+RfqGA6XYmyvK2FnGOQfn+/ow9lN5Hv1ojstA1xu++48yLpbE1x+DKlW/fx8e+Tim3XSEbgWiV03ABLbmNP58VDf54bwkVVGS1reUInEAls7HzXuIZrJJ2AlmUFQVVsTLMij79dsRLx9aoFQIvoKDhgjN95hFcoLibXy+mn3kNtymvuRtoyb2C9U0zaGzxRRUMsolCv/iM/+kvIKTcrMVRhurNklKoZqzC5omUu3LXBNiezaeBNYT5moPZ8ciENwsv7YTqdylfjtFbjuWICuw2KTX3Ge2AaLFfXjKTspk0nwArs6cjcMzJx1i5JL/Bjs/dHfKBs3uAhcoPd4kbuDvJHXyanc8r2Om+Uco1tmUFlaSrZAbeLJnDapuGLPvla61ZqawgcYF2FSnO1Ss4v1buUD7VxZf6Y2kGF+m9vMIjqM7u3OibeM0LQtEnOFcu3EVjxemPY92o4IsFsKZ8Hvtwt3EaxnCR2Jhdzc6vtitkrvg+6BkhV8MD2GAB20PljCt2U9fQQt7DNq52A91HJN4mCqEmhWdW9HDbzRZ91FWDsPIvrSsWWhE4GkyTl9mKm4XJDLq/QyDLQRTuznlU7Mb1QyfEpfL3XRY2uK6A7uNUlijCwqonwaQTaLQEbFxCTJnncawhUvKULy1Use0zuyXCdnYagWXPyili7R/twoWI3DL472bSfDJlP5MyNoteRLF6hsd5eEjjKpY8L8qk/FKuDQsvtIHMszHhK5mNJ2gVehapLELF3K7H7IyqcljeJrEuK1T08o5ktOfSJAz3hh1exZ8vFMZhmwwYu7vpPQ09vIsv3RburZ3a8mXxCo0iP484bVfIZiu5Bg9bncTs58NGrGKnsCvhFAz21XduBfF1GaWTI/QRmRD3p6LVWAh16cvzfUTmalFl9eWA3ztWCguWqwgxWKV3qO+iWZjuGSuhcP3w9/8FuC4Kt+JXbRXHp20Du3PEp+0Ez6/bArzwWGWc2DbmXFxVt0RJ1Z2Rc0vk3Bntp+Iui9BMmuZwfKa562UFxlIzVrr0S6j8eGEuFUpuQTZjREj/x1xs7JJscRGK7jQxOEaMeWbmo513rRsPhO0TOZMo5ipdLzXlsgvEob786jwywbWaq7T/UK93hP2SZmsRYh3hsW1xeVCzQIcD0e1tHbL9asrVEVFIGKIui0Qn2kHx/FU2eMoNv2eFbgbPy599aI5C4q0ZTobZNX/ryd+H/lzaDaAVxu4QIxAxl0W5pZT0+1jnWsOMs9k+Y1sTyphgF1fKTy4TmRdpD7ODCt0cPefIEosd6JqzgrZZ4SkrV6xiNiSaSfPJkFFhzivY6nOVsSiVtM/S+JnLQ0MnBAvzZK8YL5GzFF4YZfxM/1f92vZwtlm5YyVfY1Fv3bP6xc5jcx7yaQudWfw/bmLZPJ/T5yfZ8nns92GUIu1XyKhY7U2HocBvZLZHoW+l5NClcZyAa7CCE7n1yWOFE/O/nlIAqChwoWgrKPh0IGItXpoAbDmzXypop2zPyy0e1nl4Abo9P2MLcH44sVjQYytycIPA3trwFLgTEi6LlvzKrAhKJZH1S+J4GAvNQQ6EjCKR7S5uDV3Lx9tmu+lxC00L6sqEW1/Tx+QjZUvfy3+f8KIZKYf6zxoSzaSxxJRYHdyO0n1W2cVI+bTb86xGK68t+ezLcfD6DetAlnnhpmNjzD/8SrbZI1i4OB8yKoK+I1mkvLHc8dlAv8ii69F0v8otH7m1wkaC9628t9SVX4y9e/MiZ4w6yPW3A6Fy1zO4F+jembQUdyElTvj3Jqt3M22Yyt2llTuSlI8pN373kcrK5pO7j2nLqK2P3K+NpCnan7rT6ZRf9Aun9fvM4N/55Xbn7lryPc1YPjn8O5ymb03bYsFvr3zryoXcFfXSBf1alz6sg5dXJX3NHVROHx/vbDlCfZpSFvJ9b9LZ742cpEMhN9JeN8Tq6cHfROoSjkNmDrVSnps+d1fcz6eqB/y5EunXSF8UIRh/v2xqp+RXyF5d+ZG5kJt7wlf0fwzBFWrxGQxcldWcLDm+A9kMZIWQ49/4iY1PtB82wp+S8vPSOi8OWpzn5Fc1hxNk0U7CMU5D12PsT7nNc7ZeyApC64K2/YWlyfV+AIO3LsL6hPzklCzeTFvM9+/RwrgGkPuJKJeX/tm3oigHDKtl5eCx1kX46yFGVt/YClpYys6Kj3nQr/oKi6EZC5msg2jZDinLSFGUz4L+P/UURVE6hAM41FMURVH2gypkRVGUDkEVsqIoSoegCllRFKVDUIWsKIrSIahCVhRF6RBUISuKonQIqpAVRVE6BFXIiqIoHYIqZEVRlA5BFbKiKEqHoApZURSlQ1CFrCiK0hEA/B++A24UlQIqMwAAAABJRU5ErkJggg==;" vertex="1" parent="1"><mxGeometry x="60" y="570" width="356" height="34" as="geometry"/></mxCell><mxCell id="3h2fL-NuVmTWSyPItM19-6" value="" style="endArrow=classic;html=1;rounded=0;strokeColor=#006EAF;strokeWidth=1;exitX=0.75;exitY=1;exitDx=0;exitDy=0;entryX=0;entryY=0.25;entryDx=0;entryDy=0;fillColor=#1ba1e2;" edge="1" parent="1" source="pdnPB8LrAb-UpEsbpM2R-12" target="3h2fL-NuVmTWSyPItM19-7"><mxGeometry width="50" height="50" relative="1" as="geometry"><mxPoint x="430" y="580" as="sourcePoint"/><mxPoint x="520" y="730" as="targetPoint"/><Array as="points"><mxPoint x="550" y="682"/></Array></mxGeometry></mxCell><mxCell id="1fj6Q892M6bZ-ZogoULl-7" value="HTTP API&lt;br&gt;动作：连接数据库&lt;br&gt;额外参数：127.0.0.1，&lt;br&gt;root, 123456, testBase" style="edgeLabel;html=1;align=center;verticalAlign=middle;resizable=0;points=[];" vertex="1" connectable="0" parent="3h2fL-NuVmTWSyPItM19-6"><mxGeometry x="-0.0868" relative="1" as="geometry"><mxPoint x="9" y="-44" as="offset"/></mxGeometry></mxCell><mxCell id="3h2fL-NuVmTWSyPItM19-7" value="任务调度中心" style="swimlane;whiteSpace=wrap;html=1;" vertex="1" parent="1"><mxGeometry x="650" y="604" width="470" height="310" as="geometry"/></mxCell><mxCell id="1fj6Q892M6bZ-ZogoULl-1" value="Python Flask&lt;br&gt;任务调配&lt;br&gt;管理Docker" style="rounded=1;whiteSpace=wrap;html=1;" vertex="1" parent="3h2fL-NuVmTWSyPItM19-7"><mxGeometry x="20" y="140" width="120" height="60" as="geometry"/></mxCell><mxCell id="1fj6Q892M6bZ-ZogoULl-2" value="Docker" style="swimlane;whiteSpace=wrap;html=1;" vertex="1" parent="3h2fL-NuVmTWSyPItM19-7"><mxGeometry x="230" y="60" width="190" height="220" as="geometry"/></mxCell><mxCell id="1fj6Q892M6bZ-ZogoULl-3" value="小飞的容器&lt;br&gt;（连接数据库）" style="rounded=1;whiteSpace=wrap;html=1;" vertex="1" parent="1fj6Q892M6bZ-ZogoULl-2"><mxGeometry x="40" y="40" width="120" height="60" as="geometry"/></mxCell><mxCell id="1fj6Q892M6bZ-ZogoULl-4" value="小X的容器&lt;br&gt;（其他任务）" style="rounded=1;whiteSpace=wrap;html=1;" vertex="1" parent="1fj6Q892M6bZ-ZogoULl-2"><mxGeometry x="40" y="125" width="120" height="60" as="geometry"/></mxCell><mxCell id="1fj6Q892M6bZ-ZogoULl-6" value="" style="endArrow=classic;html=1;rounded=0;strokeColor=#006EAF;strokeWidth=1;exitX=0;exitY=0.5;exitDx=0;exitDy=0;entryX=0;entryY=0.5;entryDx=0;entryDy=0;fillColor=#1ba1e2;" edge="1" parent="1fj6Q892M6bZ-ZogoULl-2" source="1fj6Q892M6bZ-ZogoULl-2" target="1fj6Q892M6bZ-ZogoULl-3"><mxGeometry width="50" height="50" relative="1" as="geometry"><mxPoint x="-20" y="80" as="sourcePoint"/><mxPoint x="30" y="30" as="targetPoint"/></mxGeometry></mxCell><mxCell id="1fj6Q892M6bZ-ZogoULl-5" value="" style="endArrow=classic;html=1;rounded=0;strokeColor=#006EAF;strokeWidth=1;exitX=1;exitY=0.5;exitDx=0;exitDy=0;entryX=0;entryY=0.5;entryDx=0;entryDy=0;fillColor=#1ba1e2;" edge="1" parent="3h2fL-NuVmTWSyPItM19-7" source="1fj6Q892M6bZ-ZogoULl-1" target="1fj6Q892M6bZ-ZogoULl-2"><mxGeometry width="50" height="50" relative="1" as="geometry"><mxPoint x="210" y="140" as="sourcePoint"/><mxPoint x="260" y="90" as="targetPoint"/></mxGeometry></mxCell><mxCell id="1fj6Q892M6bZ-ZogoULl-8" value="" style="endArrow=classic;html=1;rounded=0;strokeColor=#006EAF;strokeWidth=1;exitX=0;exitY=0.25;exitDx=0;exitDy=0;entryX=0.25;entryY=0;entryDx=0;entryDy=0;fillColor=#1ba1e2;" edge="1" parent="3h2fL-NuVmTWSyPItM19-7" source="3h2fL-NuVmTWSyPItM19-7" target="1fj6Q892M6bZ-ZogoULl-1"><mxGeometry width="50" height="50" relative="1" as="geometry"><mxPoint x="-40" y="86" as="sourcePoint"/><mxPoint x="10" y="36" as="targetPoint"/></mxGeometry></mxCell><mxCell id="1fj6Q892M6bZ-ZogoULl-9" value="" style="endArrow=classic;html=1;rounded=0;strokeColor=#B09500;strokeWidth=2;exitX=0.808;exitY=0.017;exitDx=0;exitDy=0;exitPerimeter=0;entryX=0.25;entryY=0;entryDx=0;entryDy=0;fillColor=#e3c800;" edge="1" parent="3h2fL-NuVmTWSyPItM19-7" source="1fj6Q892M6bZ-ZogoULl-1" target="3h2fL-NuVmTWSyPItM19-7"><mxGeometry width="50" height="50" relative="1" as="geometry"><mxPoint x="-40" y="86" as="sourcePoint"/><mxPoint x="10" y="36" as="targetPoint"/></mxGeometry></mxCell><mxCell id="1fj6Q892M6bZ-ZogoULl-10" value="" style="endArrow=classic;html=1;rounded=0;strokeColor=#B09500;strokeWidth=2;entryX=1;entryY=0.75;entryDx=0;entryDy=0;exitX=0.25;exitY=0;exitDx=0;exitDy=0;fillColor=#e3c800;" edge="1" parent="1" source="3h2fL-NuVmTWSyPItM19-7" target="pdnPB8LrAb-UpEsbpM2R-12"><mxGeometry width="50" height="50" relative="1" as="geometry"><mxPoint x="770" y="610" as="sourcePoint"/><mxPoint x="690" y="620" as="targetPoint"/><Array as="points"><mxPoint x="770" y="473"/></Array></mxGeometry></mxCell><mxCell id="1fj6Q892M6bZ-ZogoULl-11" value="" style="shape=image;verticalLabelPosition=bottom;labelBackgroundColor=default;verticalAlign=top;aspect=fixed;imageAspect=0;image=data:image/png,iVBORw0KGgoAAAANSUhEUgAAAzsAAAA3CAYAAAArBVTJAAAAAXNSR0IArs4c6QAAAARnQU1BAACxjwv8YQUAAAAJcEhZcwAADsMAAA7DAcdvqGQAAC9nSURBVHhe7Z0HXBRH///feX4R8hhLEoO9oBhRsRFRoySxgQWxQzQoFmyxa7D3HjF2BaOiYg12UWygKCqKJYIiKiqKFQ0Sa4xAnn/+u3cLHMfdceipSObta+R2dvdud2Z25vvZmfnOB3Fxcf8gUcbPUv6j4ma3OOWTFF+mjPJJIBAIBAKBQCAQCN4f/qP8FQgEAoFAIBAIBIJchRA7AoFAIBAIBAKBIFcixI5AIBAIBAKBQCDIlQixIxAIBAKBQCAQCHIlQuwIBAKBQCAQCASCXIkQOwKBQCAQCAQCgSBXIsSOQCAQCAQCgUAgyJUIsSMQCAQCgUAgEAhyJULsCAQCgUAgEAgEglzJB3Fxcf/IH8r4WaoiZG52i1M+wUcflVE+CQT/AlJSSMmThzzK5psm5eFtEvOXoqi5EiH411KkiPLhNXjwQPkgEAgEAsE75HXbtMkfwA/3lY3XRPTsCLR4SvDAAtjadyMwXonSR9gIbBzbsSDsrhJhPLf9G1G0fElarzynxLx7/gofg61VTVZfUSJegcdRC+nadjJnHisRBknhnG9NajRbyGv8pIq49V9T3rYinX+9rMQYQs7jDyhtU4eV0UpUTibOl1ZFpTLZeBZnlSiSLrJ7+XqijErnVyGW9a0+UKXp/NNKlEAgEAgEgvcOIXb+5fx1ZR2Dmw8mJM1oLEDeT58RH/spnxZToiTDz79rA8YGnOeZEiOT8PAqiVEX+U+BwkqM8ZQqVR2e36W6tfRXk5gtTJs2KvvB/1SGa3sV/luzJR3yRzFv2wlJhrwaH+ctgvnNSbRzNULwPDvABp8EGg1oTwUl6lUpUbI6z+NjKFe6ohJjCDmPITmxHtY2SlROxtKKGlLuxn9igYUS9Sz2JLtX9MDRrhm+UX8osaYkH/kKSUU0vjhFiypRAoFAIBAI3jvEMLZ/Oynn8WlSnZmW/pxc1QFZ34RN+ID2y4aw9f487KXtZ+EjqN/GjyYbLzOz/meq0+ReibAJ+Wm/dTR7oydiq8QaTdhQirafT++t/zBF/pFUlPhsU3s54Tt7kl6KNYiP5HDM78qGYaJ9mzI1wp1Z3p0prcTpJW9Zatb+gvzKZiopsRvp79qRfWWXc8i/J1Z6xsQ9C+mJjds95kXsoX2asHxF9KWnHrTzOGdziAlFG7Gsdwj3pzRU4iSSLrK+21d4hpVndMBhBtsWUHaYhredRmIYm0AgEAhyCzlpGJsQOwJSIiZTp7k3zluvSYZygYxG3rMjTKlfn41Nggib6cgnyjlwitk2dVjYPoRYyQDN9hyXLMSOsUa7erhReTwxIHZeVUBlhQGBlRLrS8eGvbjRLYQQKX0+ue1P346TOK/sl3nxIIb4ZAssS33G/ylx+nFnfthYailbmdCZbne5cDiah8qWJipRd6AF4/0Hoa9z53PrJlR5XRFmEvSIHZmUK+zbdJNq3zlSXEchjAkcxeZIZUMvJXHoM4CvUruNFITYEQgEAoHg1RBiR5DDuMvB+av58Lvh1JcsRk0jr2xwb9qN/5g5+ySDL13pwMXZ2DcaR+OtzyTj+hWm8791sXOaOeHH6KTzAIW4cA79WYJaFUqRzwQeCh5Lv9vM8/8xc9cCGnCElUv3cE/Zl3J1G0v3P8be3QPbgkqkQexwHeeCtbKVCZ3ppogEZSu7GJ8Hr4A8XHHzGWUjK65xcPFWLlVqz4DG5ZU43RR3GIrHV+k1rLosKxt6sddRNuR5TQVx3yzEjkAgEAgE2UWIHUGO4Nn1MH679aeylY7+t/4fU7qmPeXywxXfanw7rhij1ntSQ2e3xAvuRj6ico/u2KrGeUUTOG0taS/Z4/awODCKSs4jaawqesrb9SvvSuykcGZmCZz3j+PIoUGvPYdGzUuSkj7CPJOntaeE/FgYt/sriNjQSTV0MPs8IHzlPA6kqid96ZnaW5H0iGvR18lbtabOHpD4C0Hc/KASVUwk9LJEEWempvaca+zsZKVsZcb43hqlXJ0SYkcgEAgEguwixI4gRyB78PrKM0zZMobUN+Dn8bGvzpRYJVovmm/Ms+plUI69qzaCHcbvp6dRk+cfsG9sF/wKvabYid9I9zpdYVEsq1qXUCLfEFcW0vDbEdhu+J25jdTzTFRGeKSBe8hEqjGubGZCq7dCdX8diRt1jqB+1bSGHV7Et6EN46R/u7dPpaZmD96bQmdPlD6MELRGokvsJIQvZumBO8pWKo+I+HUZYYlVcR7gpOc3s+htyyb6G4ZoqFEFMjkulJTsLwegTzVlW4idnEj4xMK0WZqgbLnjd38NzZStVyHj9ynYeBF6cITJyqIgK44w0aY+SxOVTdcd3F/UWtl4FbS+T8Fm/AUO9n8XXmSSeBJ3lr1+45i7JpGueyPpLwqXUeTm5z05/jTblo5i4YYwrj9NArOClKvdg1Ezp9Cq/MfKUelkaNOCB0HLRXLR0sId/lmjfM6IEDuCN0PKFdZ3rMbo01KhljbNqMdPh/bTSWuGfcqZcdRwXoZ74F1G2WnuMzC3Qht9xu6rvvE35KAgg9jJSiQYiY7f09lTlsmJQWoP0ghCgoZRWUm+7IsdLYwQD6reuCm12RDtSyMNrwrq/JxNo7X3WOSY6oDiDZMtsZNC6CgzOmwYzo5bs/hKiX0VdImd7It+BbPXvx5Nsi92JKp7QeQIZUOH2Lm3ko5fLaHhodP00d/h9V4QPqkw3z3149ZcJyXGGAIYWLQNm5Ut46jO+NA3YNzt60LRbry28aNNjHcN6m9z+/eKnXBPbL57wsJbvjRWot4m+wZ+QDdeV+xoE4134ypsa/d2xc6LxAjO7lrHfJ+lHEtry97Q8/DGuc2vHb/Ar+E59vd5Bxefy573F1Gz6NB6An+0WcKCQW2oZvkpPInl5LrBDPI6hfW0A6zpUk2yG9PJ0KZ1kZTLWuVzBt6O2BGupwVqUn4ndKoDnjdGs2iqnWRczWftTzC6aUst17532Tl3Ool8RoG8WuOdnv3JI+mPrdXr94zIRvD9+1ph6xD9+4wWCRbUHbcff3+NML83JTHHfvj2jPGGwrj6FFK+MZXEEyPp2LFpxjAtVEorDeI3MXf+U5oP+T5N6LwtKrQYSfP8Z4m89FyJkbnLHu/ZJNZejOfbEjrZJg8fyjVocgr/U0eYFMtOxzKXp/sh9JZ3uu7iaqZ915hTW9pXowLv1iu1BfTNohl99pAEKd3+/lvZfo95nJggFYFXcwrv6qeVh6FeqiG6+uIF7xGPE0hMTn7l5QIEqexhnO03/BgYj03XxWwJvkNMyPv8PDzlj4Qkqe7LBZXfuyYhgJEdJ5DseYpDc7tjJwkduUk2K2jFN/0DCVrnStwIByYfy9Rtk477QCQz650hxI5AEjq3CR5pRwe/8szZPIYqqmbjQ8p02sLuH5OZ4mhJixn7uCWV42dhs5kQIp8Uw+mrWq+Rf7/DNelP0U+MmnH/jihAudpNaNAgNTSk4J293Ck+mnGD2qjj6taicuVa1E07RkfQ4XJa22jeqrKWNXlK2JKhhEi/NcjpDQ+Vk37r+qkgDh/WCDEWdPWeyZcvjqfHbZjI5L1JNGhUnDjNY1UhkqzWlX1blLCW+2FOE5fe6awidn0zHAcv5OQ9E5s6t+Pk/hTMLApkyud3S3W48A/8I4ffMwxhEwgEglfHibm3nnNqywYm9+/G11VLUDBrN6GCfwHnV3uyuegUFvbP2HOTisW3c/Hq9jcrlm/miRKXCceF8DK17dqhRL49hNj5l5Py8Ciznb7AfYskdJQha/djT0HiY17wGVX77eGAd3MSr/0hyZ/zrB03n8RK4xjaGvYeOJ1hIc+UO1FEYIFN6declfYWSYldwcTZL+k2byC2qT0tZ6ZQrdoUjPUVZjS3tzJ3WYKkQ5YzoEFF7O3Tw4AN0v7IMXTUiEsPbuy4rf4K40ngxDStXiZd4ccVKg9xh2e20LF/NdfVX/bGOLpKxwKxSgiMUQ6SkBdNlTKG2Axd2g+4cGA/URs3cfkvJcpUPLzFZelPDRP0UgoEAoFA8H4Sz+XIO9i0a2Fg2Jw5Ney+gfBTRCkxOY3si53kO5xY1QeX+oUpV/QDihb9iAq2VXDpOxG/YwdZ1v4jmi7VsFIykUT8CW8GtEg9Xx1KVyhJiwGzCL6W2TtYBo4NpILGeUUbzyL1115cC8R7gB0VSsv78lHbZSIh8endaodH5ks/Ly3Ys/KmcoDMzcW0zHTMB5QbGaQckE5yfCirBtTFppzGsaU/wbaFO97BlyWxYIgQxlTQOK9oDbzTbuQywd7uNKnwkWpfudqN+Tnkjmoejel4ya09/fjmy2+ZndiZteFac3Ni76qGpIGUv+03Er7SlQeLnJlyyYLe04bT4Vt7CDjIeY0X6lejD0r/2/NFSfV2dki6dYxIyaBPeKh+da/TCF4lf78hA3kx4Vrz+AwTy9YRQ4hsvojBaYulvkE+spLK+EgGdOtM8+ZtMoSapaT9+avwjVa8OtRDesyyQYpkq5vRaqfG8Jy0cAP/8fPx2XOdm5n2aYc374XsUqAXixfrDqc0FgjKY1EWK6nuuKE5KSXhMDv2gpnbWNrpW7n1FUm4FakafljD8j2c6PJ0BwNS66T6I4nmHFPra9Y1mkGr/svEa9bXCqq6cnhj6tsodbBcT9ZvTN+ffTh2dD7tS9diqQ6HJ5cXVUv7zW7yxJvNbdK2tYOuOtq0/MntM7vx+9lNav9KKu2MFMoVpr6LJzuNTAsVqnbUnRa2n1Badf1yO1qXAd6BXDPccJiG1N9PzY93cQ2vw+WZNEy97m7yRIC1dEu7D61Qri+H1Wfp5kUcZw748HNfqXym5YdUnmwku2bSpmylRapNYKu03cbbA6bhxbVNTHKpkF42VfevLp/+ksFqWhsiJ/KEvQNSy3QVpkZD9NQq6WmhFVquNPQ6Tzzvaorx3bqXWc4du3tXqsAty76id9k3T/bEzpMQJjUsT6c1/8FlzhFOX5cNopdcOLyfie0+4MDAFkwIMzRGMomL3l9Tp9NScFpJQMQf3FIZVS+JCt3FkEpRzGhShJazj6HXZv16EVcUYyx0vPy2V+ZPolY508DtF/5qvZzQqJfS/kT8vgnAzWEM4cpRDbyeq847+ZM9Zk6/EqP6njA8NH0wlBnALlV8LD/VNsd+VqzqnOteTZQD1CRfnEXLOi1YQ1vmB9wh5pb6mm5FRbNmSFUuzbCjSstJnNR7I42YcUV9juY48RdR3nRu4MTqvzowJzRelT6X/Rqzz+1LZqTeiEn4P1IeXcfceR1HTvjiqPgjfhbuza5S6wk6O0vL0P2dFy8+x7L3Rn60L4ClbRusktdz9Fyq2oklYp+k1mybUkVrcUZDvLi1jwUeVbCpPYro/0k5+VydYDqN4ED1OwP9BrI/sUbXPynEru/FiNP1mDWxw9t5QC2+xWPcTMbpCN2/kfZbudFfx75x4zIveKmPB2fXM7ZFIar4XtM9/OrZBbZOHUK/nkuI0OyWe0fomn91e2M/aY8FBfKqj1FRqiJfSn8Onkt/kRJ/ZDV7peP6uTmYeKhZCld+k1QUkgg1jQ/yt0uBNixW1c1SUNUt8gTjjGmcHrTqvwyYoL6WeHLMk4ZyXfmfzswJuMF1+TtuPeCw/2zafbCHgZ2GEqZnXlHFgefTrtXPVYqQvV4p29pBu45WU5IylubkMVYLfyjPDyvCZzoK1M2VTag/fBk38rZl1IrjnLis/O7pI0xreIHRjawZeVD9isgQf8dv5cc6Fel30Ioha65yWb7+W/GErhnK50E/0KhWU9ZcNDD2/XVJPo93S7kdl7J1/lEiYuT2MvUaxlLp0hiaVLFn9skc7Nqv4igOKfl+389dipC9Xinb2uH6Ehqoz9LBdVZ2qMLwtdfI6zSNFYFKftx/zumABTS8PIBG9n05qHdsTip/Ex/Ykzr2nThoOZY1JxJVv62yB/oUJmhEDWp1XMrFN6g2EvZ1oVajH4moMpoNIb+rnzMpyOVzjgv82r0idfqs43quVjwFab5Ybefdv3+B8ZJhJXu0SysLWmGXRznlvMyI5z0bJGxlgc817Du1Jqe+HsyW2In1H8kvDz1YtX8JHe0qUkgxRswKlqCq4yTWBfnSVNeAPoWEwK609anEspPnWdzfmarF1JOc5C6wgsVscey/lv1hq7Fc5UDnpfKIeSP4+xrb+ljTZX9zVhwOZJijLcUKyrOgzKk8OIzoA+NURpImZdoNwOHAYrYZeqN5fg1LYzwY1FHHwyBl7MC2s6mwLJZDi0fgKI9tVe5bnRYjWLz/MgstfXDtPC+t58kwf3NjW0fsu+yk8Yoo1g1LTx+zymPYFR3BUO0beS3yYNVpH6E+naiQNmnsKac3eeI3P4xH2s4HKIH9hLOET2mIyjNx5SZ0skpg7YEz6omhCWc4cAoKNf4y68KedI/omKuqj+uGNuenI/np4D2fpmkjhmS3yekVUlow5KBAFQy4lqYchTU8CsjD14Z6HqfWrOV0fCX3ZzmHlOdXOX7stOpzwPTObKQb3q6pLwIyEh/kw2ZJIAxZNp2vctZklDTu3pHdjlVAKv7p5K+Ana1Ub5+4KMlqiZRTrJ8uCZJK42iXwSOgKYjgxFap8bGy5wudIvMWMa/rze89wDT1dQz+U+fy0G07+726Y1feAnWzoXzHsECC5rbSOQ7cNNRkWPhL5hrrpstqKPtv7ef74sq2BmU8wrh+KIDJ/V2l+yid1v7lLVSRb/rvZE3fj1g9dgHn1dF62MdIh05E9zzOyXWTpLZDSQ+zTylW9TsmBcSwu/cfjHPtxb5s9VIbywMCBzbAp8JGTh5aS/+09lJCdQ3O9F98mrCFVqxydZbaQPWu3Es5PHY959DqufRvWZfyJVLL58cUKt+Y/mt20tf8F8Yu/00Vq5eQvjj0O0fPwFh1211I7YZXZQ+0mkNA2HF6PxqMq2eAwRcDr0ryxRl07H2JfvtiCZik+Zypy6ddR/kajtAtrictR+3RP69CkIZ43o1EFlOdO7HXcgpTddnLOYTsD2P7+FPy6WuZLOrTrJ45H374oRKhQXIwczx3YD99Ac0MvKU2K9aeOT4exE0fzw5jnsiYNQR+voog//5UTX2605AqrLQGWoOCbfFwv8LMJcF6unWTCN2wEHr1oH6mk6V9c3qx134h05oZmJtiVhLnOetxixuN146s1b/sanJTYGHmB+2ne9XM/srzFkoXVKZCXkgyw4T07ZOYuiGJkk52/BOptS81XLirnF0Nh+5VSfRZwdFn6W/ZuzeW3VTp4K/rHF8/XRKPJSlfpgSNx+xWRTvMiCQy+gTT29vxuWSz3o2RXQBnFCavy+3bsvFciLwaxv2p1X05JeVl2JDyGt26SlC5vp5Pe+34tPA167Umyr997vLb+jF4OBbGqnwF2s1Tu05uvfwBl3YvpL1lIqcy5d+v/LJYEggFHSjy/JDWPl3hzTkoiIuTxZlUVxg9AbYC1RpLFUfEfi5IjcLjw4tZeM8ct/HdXnMB2BQexmwnTKOSTzmzk1WJUolp+y2Vlbh/HSaurz8umF+voLGo15p6ZnmkdkOJeC8xp6ZtPalgX1fNgdNPAn9/vZ51eib6ym1W1cEbmVZxE4OnBJjcKE0OnYzn3gZMn9Zaqq31YU4x5+X4uMUy3cv/320Ym32FbS0pW29qr8OlReLffO0TSP/KetxN5f2SwcsWUDGgO1P2GWMPZIfrrB81lj8H/aL/92VU1zAHqw2DWG7YQhdkiXjeVah6jWrjxQR2bx9BZRPbqKYkW2LHqt043P5ZwJgFx7l79xaJmcb5leJ7/5e6fZqf2sX2J21o56T5ulY3ZvVdcPnvdvYeNaJrz3oCy6c7GshIXZjzde+JWG9Ywh5dOftkO6s3VKaPa00lQpMwgrY/onm7tmTpc8zMEWeXvOzZG2LEWFkbPJcvpH72buS1uL5Ja0J633lckuLvrPXIGK8ZNl1RnywhuzJulLyC+Tv3sls2oiuNo5WtslOb/77kou84Nh1PpqzTdFbO6KCKLmddnaIaPUsv5HbArCj5TdjrkJz0p2S5fpL2pkvGzjOe8+f1hFW9pCN6sUrXPlXYTvbWHX1A+Epdc4zSw6qj0mGxG/DWsS8trDyi8VYwkZM+P7FHMtJr9ljOtnnyNUORzwqrFwxNDGVapvxzY6mcwU9+ZXSmfbrCm3ZQYIeVDt/N//tb7iu0IJ+W5q9St5PUYOzgwOlD+I5cS3KlWfygLMqabeTexT0z8KhfiCr127E/bX7QU45umC2lrgHhnvK3+nmuYfVqayK9D5isvram3dAe/LN8IAtO35LajYTMcxeKe+B/6/1fB8g4StGtd/ss2qtytP6+KU8CtnLCxEOOTgVJxkzzTjhl2XiZU9+5M//ds4OjuXrYk4ko3pfezlk45inzHd83fETA7iOmnTtzL5jAUzZ876TLXtGiTCtc7GPZdUionbdDLn7eX5xlQZrQGaOjsyFnkb2eHYvWzA07Q/9H43FzroatahKsPMnJkvoubvzsf1Z/F+3zx5Ji3EhPzYlzekNjVkgi5NpN2ZFxFnz4Ia/kHbGMGx4Oe1i5LbM5d375OA44DKCdzrHsz3gqXVtAT2UCYhbBZYVkvV+L5YZytn4+zMZbbtNgPyV9CNjtvZMoLhX45kvvaAwLe8IGN0mJWP1MSGqc5mKhxVrSv7cFpzydGHdJOndIewNv2SvjMG0vR67+TvDKMThZ65olc597cpbXqkQJ7nJBu6chUj307bquXqe0HqfMqLzLVSzN58q2jHnBohQurCcUkK3sjymga58qSIZ4tkZO/cX90zvYu1d/+E32tvbsAkd17EsLp+/xUv2FEtVouzScU1J6bp/ek3qltZSBZU92puWjFC7vwtVM0nzdgpQx6Rrh9jkmVJLOqbSAIxn2vTkHBeoevMyCRkaVX5KM+FyrhchTrQku0j0E/NCc2fdkRxnZ7NVJecYLlaW9hO+/KEFjj7EcePglg1ZeYFCqronbxPwNktHeaB6d9An3uze5qHzMtZiwvrZo5ktY0HAeeTnh3LCU2tGBPHHbTu3Yxj8qB88NycCfXAuexYAWlpmd0thZ0sLruHKcIRpgW1P5aICCVe2xST5PbNYNR7Z4/lRqjwJc0ibhGwwui6QycJmbJr6GHIfiEKiFXWYnHHZ2dfFSjxA2jH1tss7WT6lauzrJF2OMsAeywbMnPCaanxpp5J3eUJoRUtUbcy23Z6opEM+7XhKO8VPbesx5T4SOTPaHseWtSKtJBwmNeJw2WfVKRDTbZg6kVEQ3GjT0JFSv4umArzKR35jwZlcO/hSnrh7ELF2TccxlcjAblsOgIR0N9ty09lUmeRkTcvrK1ilX2DBxEvdqz2ec5vov8bvwlQy/St2d9AznKYB95/Fq5wolxzIki7VjLO2bacwP0sGzK5yJALPqVpTiCpu0exqmqoe+HZiqFS8HjR6njMQSF5n6ne8KS9osuUxYmP6w2E06rMYM/HXsSwtLOma4h2JV6lDaUHqm8QfB413YjDvzRzmq51xp8PjwbGZKYtV1TOfXHBJmLA94KIs7sy8okumVl7LP1jrzgp357XF2MSc5OQkz15UqRxlZkfTkPtfObmD5oAbYWBXAfZ0ca0ZZh+msPHiXq9GHGeNkoxpCKQ8NDJg8gFNSKg8b/p1+pxUvHqs8tdW2Lq3ezrWYrr7OW/47Jm25QMSV1Mmxj4k4coiZPSyJGFSVhpOC38hcBpMhGSJLWxahyYwoKg3ZTtDp1EnQ8r3c5UDAPiY7v9slZo2m9Ral7TYmvI8r5xtP8sV5tKxix4xLVRmy6ozidEkdbkVGEOA/F+fCysE5GhtGh2jmWxZhUWvlPIFOxPOun4QAfmziwHKzn9i36/0QOjLZFzs6kSfz1aWj12nWNAmgQ4NBHNPuCitbRXocgziRgyb2mtXvQS9mMl9jTs2TPUvYYD0UV71r9ZWnotSmHz6hniPx/pNC7KYfGC87F8jzgJgr91APRnlK+PLRhJi5M8ZF38yFPwhb97Nq8UXuTGeKJDheZ2nHlPMHCZD+Nq6u8bT1DtHxQGoG9Ur3eg3PZ5dk1+9p3/nseljmXiHtoOpBukqkrn2a4dTVDOsMZeQPnuSIF9ay1zkXemxOomQHJ4q/TO8bUvH4EHPlIWGS0B3S4C2431Zxk6tyPdC4ZmZnFs/OEip7GC9fEm0bI+XhSSnd1aXTqnq5TKItEyknmFevGF87dWL8pnCwbston3COX0skVO5dtJH7MlOR08mdgXuTKN57NT3TFl3KTErCDZWThEL58qkjciNvo77Oa0F5u+547d9Jk31NaDDWmOG+74JHHBzlwPTkCQTuV0/yLaFMQFcjtX8lKmJnY8zk3MNEZDHXXSb5xgWumlXDqqwSYSLKVqwuXUKoJOgFUmPPKNfRJHseZ7/K0VD6JHQVUvksIdk1Nnq9FWoQdoqsszWJG5cvY1bZGpNma1lrKptFc+RMthdjE+hEPO/6SL6+Do8Gbdhv68uBrUNz9BwdbYwXO7HzaFpU91oI6ZhTs7UH1olHOKfdFWbtQlf7F2xZuzUHvcGrSa9RThxYuUEyv2Sus23lHhw83NBfv9ng3LUhf21ZRmCOfhVpHGqvZIf43G0BQ0tuZlDjEnzxVSd8fX+kn8/v2M+aiKNOq/IlV1a78P0y6RivvXjZS/W9pwNTw/5Q9meXFM4dXS8ZO/Y4VDfhoqTXfiOE2jSoov7Ox+e9GTt2kOHge0Q68gi+uvZphlW/8Vj1rZl5HDaVcbJyOzWFla+cJq/P47ARuMr5a23LXxu/p3GN/1K+fjsW7DnH/edXWN+jOcseNmTOvB6YeKka/cSe5WCiJFhqVcJCEtXHZtTA3r4pg6Z1o+1XbdmQbI5b228zupOWRNnUJk1Ydq8UxYvDpSkzCdZO/LitLNh6URHrEnnsaNq/CR2mHeJYzGOig7cxuF0dymUagygJnYDOqnTCfjmbxyseB/Wg9hZnTtki78/iudnGRPV17NJaFG06T+1BTx9mX9H6exsSw8+YdniPyTjB7i0JNB842GDjnvy3MVLtNn7LskrTR4TsDuS/bu40MrExYe3cF/u/1rE20HRvYo6N/Sx9KIx1F/Zla4bzO+TMNrYktmFgL32Tx2WSMCpb7y1hWVZp+mQfu4Py4ubSzMDvvQJmzejgbkHY6rVv1LV1tjk2COu0YVKfMdDkjhneFOJ514XcC9reoScRTbdw4JfOlDPxtb5pjBc7f6fwN1Fs23fewNu3JC4GbyKm0LdUz6RQy9FlxmwqBHei84KzhhfYkscDNv0oiwWfTENBp764xcxj83kpM0NnMzO2Nx5ZTMot02URkyoE0q/zDKIM3sgDTv5Ui9ItFytiKgdSpDGjfILY7DWIngsuEB15jNEldzNunLyyvgMu9XQNTfuDKB8nHEbKImkLi9ya0XXFXnoXv82y9jWYEPp79nt4Us5wYK1UJTTqSyMTzvq+eOJXEq1cqaV0IZRqs0H3EDHNsLiHdGQPFuvapxm0hpWlIfeWDJwPvYMImPAJy753YPaZdyF4pGf282/pOsifzQfOEh37lOPbluNhdYVFHjWoUd4az7AkHOes5ru3pnQgPnInEZLMaVtX7j4tQPV69XgQG8Smxas5kfQ5DUYfYoKG44GUe4H82KiRSui4rQ3jxIpJFE9ey0jfUxnL2f2TzOn/FXPSxtjnwbbffhb0bED5gnpWZU35nZOz69CwzybuFR/Cryt6ZiH6UrgZJffq6naukONQvfU9x7EIQ43dnyQmai9QZZr6+m/Z2cSlDewztI5E8nmCd0ZT6Cs7g2+8VW8pw8I4acDGSH6SwBOTG3yfYfE5nLt8QdnOjLw+WpeRG5UtQ1jw4TEpTb31taNJXN/SA88QZxZ4OprWKJYp04cZkyoR3E/6/ijDi5IlnBxL09JZLTobztG9qUasOfZjJ9Esy8nQJkbVC3mYUycNlbFHJD7R2v9JET7nDJcvK9uZkNfva8VI+aVVVhT6kGNSmnrrK+fJV9kytBchTVbhWd+oscfZwJyvR/jR9Y8puHpuJd5Q+Zevw6PwW1iAF347uiPNs5eZ/U8Ma5a1sxPTUh6ryuZEHztlUGy8SNR2miKed23kfS2bjSa51wGC5ran2HsmdGSyOYwtiXNTa1OlSV/8z1zO6I1NqkzOShWD65yX9PAZy9e6EsN6AFsDF2Dh9y32rT0zfod0fvy1E+zydqdhHQc2WSzAq/Nb8Nlt5ohbL1i+YSs7V6/EetgQ3deeARs8th5nmoUPre2/ZZL/Ca6lGQtJPIm/zJldsxjQ0ArXTUWY5tXLQE/RuyVPvi+o185RbeBJht/lwKnMOfaEfDXb4mh5gKG1C9NiwVEeplqVSRfZ2rsGjlMkodNKMqK9nFGtR/pJQ8Zv9qeVLHg6lKfLeo037EYQv3Mq8xPNad6hgQkX+DzFHu+Yt+tCOEXpLWE4PsMdqdPvMFt7PmWhsyUtZuzj+nPdMtDsM2usSuR7NWcbesnD59ZtGTymgzp/8+SnVIW6ksj5HHO5jOcrQbF8EDywNJXqd8f3+I1s5dmrEUvI6r3SDXeibhV1TP4GPlxLHZZ47Q7+g+sqPSspPDw5gzbftmSDInS8HEthbjsQL1dz7s12ydCTmPDgqtSg2FHOSBGSdGsfU5xK03p2BFSdRGDIPOyzGhv3+DB7d0l/CzlS+X1wxWbWjL4j7QgbUZ8fd0ak17cvErgbFcJG7z641C6CbfOZktmnhanq6+QzTG1WhCYjV3HmWkbDIvnJSVZ1cWDOy4H4DGlksLG3/m4yrkk/49FlFkfjHinGg1Lfyivgd7WjStWyDAk0tcP0r+g5w51nC1vTx+8EtzVuIPlJLEe9nbFvv5QyjYxx59EMr12+WPrWo07nSQRHpaaHJDijApnd2QqH6WZM3rXcoMvv18HaI4TAaUXwa21N60kZ8yT5yV2undmM94Bq1HFdjcW0JXQ21HjFHOFAqu/dQr0Z+i7W2bDuynDXl/h4tML7aGya2FXfi7wCfmuaVClGrSFbySD5aw5ihqtUN3ftiN+ZOI1yKZWpuIN4d7am/ZpyNNLjlDEDjZawa64Vvs5WdJ4dSFSqPSA9Z1HBk+hcx5bpeeaya44hF8CvQUEnvIJ24XqhK/ZN3fEOjiA+TdxJZetuBMf8PGldpyojbrizapiuBXhNSTThB1KH1VngPrTbO7CBzGnUdwrVw/rS5sdN6XmSmh4bZzHcpRxVbOuwKEPlJ573DIR70qD1cj6ddopdo7/WX34P9qS0jWfaIv45jQ/i4uL+kT+U8UtvuW92S19E5KOPlDuXh7E13Ee3Q0v54uImdm3Zzu4zUdxRFSBzChQrTzWpQRzXx40axbJ4c5F8h8ht85i2ZCPnb9zlqapy+phCJati16E3Azt+h10pHW6aCGJkuaas1ih8+sjrsp3IxW0wyjHtzaW0/+YHwmjLL1HbaGP0m6kk4iM3sHTaHALOXyP+qbpyyVuoDJXsuuI+sDut7CwzuDxO5fDIfHRcbVhpq8jbmVWRa2n+ih52jSLlGdePLmLimCkEx5lJbcBWlkuGevH/d4M9Ex35Iaglv4bMwvrmEga2H8yh5+ZY9ttF4GhHZWJ3OimxG+nv2pGd96Rjuv3KpsltdU6iTwntT6kOPqoFQqfYBDPKvgl+5pPYe3Ii6ukSh5hQtBHLHLzw71lDdY5uIvHtOJKIYSeJHpaxVUo5M44azjsZeuQ8PbMz8z5sKEXbw9ZseyP7g7AJNWjvV545h/bTKa2LIIV7oRPp328uJxLNKNagHe0bN+HrL9T+4QqUrEbJLPI3KeEKsQkFsG5QQ6cYzJCeGS46heeJsVwJ3Y/f2unsOJEgGYn5pTxezdzezlgXfKmR90mYWTrjOWMhPzQqKz3VpkedJ9NhyHEiR9VVu8nWRdINQua40XthOM/zNWXa9g30rKoxp+ixUmae2TJs8z4G10lhp1tJ+p+TylC0VIaUw3Tx150gVo3ux8zgWCUtlPKu42JSzkzGYcCv/K2o0P89jiMuMYlKE84R1K+a/ut/BfSPiouGGpIylEfPUR0uRMrvW3TyQGcHThLXQ35i6mQfQmOUhs6sIMUKV6Jai7a4tPyOxnrqKRWvXF+rh7E1PNSXQz9X4uLOzWzZs40zl26qRZN8DWVr0rrvTPq0q2Xc28KEs/jP7o/XdsmY06hvS1Wqh7NzT1q2tadi6qJ5GbjOypZWjDHkWSvvD/jrXW1fqutP+DJ92k8ERSlpIF9/1fq4uY+iY6u6lDrShaLd1qqOltOnq/9zvKQvC59YmDZLU98tyyv9r6GZ7AFs1XTm++4iKv6JVA7lNtSWJj3HMqS7M+V1ZoYR96BJXklEHgqmkx4rMzn+NNuWjmJJwG/cUF2DRF4LSlaqS4fUe8pi8vG9NY34csQh6ZM5TRffZLXLuxra+YAo/0mM8vpVSU8J+V5KVaWWc3s6tfye2hV1rLknle0T60czbWFqPkjZWqAEVev2SGu/jwz8gG6b1Yenl5EjTLSpz1LZU4mM6w7VpP8X1wJZNX86vkFK+VSVkZb0HDKW7o4VdT9jNxfTss5AjM7Wb5dzaFNPPeJB9iDmzfz5PhxKfc5S7TOHLvTp0Yv6utJBRTbKV61FnNw1QL+AuSfZVF/KNpWUBE3X8tvqzm9G5BlB8vV9LJw6jFWh0RrpUZQvqrXDycWVVo11lXPxvKexT/M+s0K5X2VLf5sWIKmPNspnd/hnjfI5I5M/gB/uKxuvifFiR5DreHb9ADv9fVi2cjsxzyFfzdEsnDsER2tlrRYVL3kYc4BlP7qx8Ldn0kFfMWjFJobXL6XX0Et5GMxPzi3xkYpRw8WX+dVFKVs31jJqXjT5Ct/nhN9qfntuzYSQy7gnzaBd6ylUXHGPRY6pBq0idpStLJEdGWi6xZaIC+xEx61ObF/VKXu9Ra8odmJWfonjmId02xopCQ5dk/1fcj86lIPBv7Jrczi3X9wjNl6/i4NM1F5O+M6e6Wu7RC+m85xLVCz3p5KeDZl/OoSOn10l+JeRzN12nlu3Y0lU1WrmFKrqRKdug+jY2l7HvJWX3AqZwuCBsiCTRU83lm1eRTOTurCLZX2r8nieqso0AwL0z0u/0KNlXw7LorrdYpbP6ElVHT0uj6Nm06PFcMJU96emuCR6T0qi17AIkeebOdF2UxWmzJxEe00Rpc2zIEbZNsVPej5UmFlQ94f1eOsRR6/DmxM7AsGb4DZr2qtdGWM5kaDwSej16yP4V5Eugq0YFnSNYaJg/CsRYkeQM3gcyEA7D+50mMHwHh2oVS6/HiPxLgHdbVlWfB4zhn5Hde3uHF08jmD95nga9XLSEBry91jRZ28S+YrVpsWwX5jcyVY1ZOnxrRtQuqzGxHC12PHrF8qtCd8qcbo4znx7Dza7riRsSD0l7jWJj+RwDHp7UfSScpuY6+aUyyAW3ySnmG1Th9mJkgbVTs+wMXy/6B72cg9SzS+pWsGKQsYsDpTyO+c2DaRPuDv7FjkbnKiffdTD0oYebIjPGC0HBBmQe8JWc+KTVrSqbjgt5aFocwZ34ZcTT8nfdAk7fbu/PUcLJsY4saOJBfxyAPqkWxJC7AjeGk/W0dXanf18iqtfLIve+pwMQc7kEVu6fsaA/VDQdQenFrXOegF2Qa4kQ5sWPAhaLpI7zbQQYkcgEAj+NWRf7EhU94LIEcqGEDuCt0fyvi6U77aWZBsvQnP6WnKCt0dyAAPLt2FzcnXGh+budZoEhsnQpnWRlIvO0XBvR+yYaJ0dgUAgELxdLKBv6uhogeDt8vDpH3xoVoIfJg8WQkeQzsPHPPrQnGI/zKWXKBiCVNwHyqPp3xmiZ0cgEAhyAPp7doxH9OwIBAKBICfwum2a6NkRCAQCgUAgEAgEgiwQYkcgEAgEAoFAIBDkSoTYEQgEAoFAIBAIBLkSIXYEAoFAIBAIBAJBriTNQYE+ypQRDgoEAoFAIBAIBALB+4fo2REIBAKBQCAQCAS5EiF2BAKBQCAQCAQCQa5EiB2BQCAQCAQCgUCQKxFiRyAQCAQCgUAgEORKhNgRCAQCgUAgEAgEuRIhdgQCgUAgEAgEAkGuRIgdgUAgEAgEAoFAkCsRYkcgEAgEAoFAIBDkSoTYEQgEAoFAIBAIBLkSIXYEAoFAIBAIBAJBrkSIHYFAIBAIBAKBQJALgf8Ps0ZmiVMxh0gAAAAASUVORK5CYII=;" vertex="1" parent="1"><mxGeometry x="780" y="540" width="676.64" height="45" as="geometry"/></mxCell><mxCell id="1fj6Q892M6bZ-ZogoULl-12" value="" style="endArrow=classic;html=1;rounded=0;strokeColor=#B09500;strokeWidth=2;fillColor=#e3c800;exitX=0;exitY=1;exitDx=0;exitDy=0;entryX=0.75;entryY=1;entryDx=0;entryDy=0;" edge="1" parent="1" source="pdnPB8LrAb-UpEsbpM2R-12" target="pdnPB8LrAb-UpEsbpM2R-7"><mxGeometry width="50" height="50" relative="1" as="geometry"><mxPoint x="340" y="473" as="sourcePoint"/><mxPoint x="140" y="473" as="targetPoint"/><Array as="points"><mxPoint x="140" y="510"/></Array></mxGeometry></mxCell><mxCell id="1fj6Q892M6bZ-ZogoULl-13" value="" style="shape=image;verticalLabelPosition=bottom;labelBackgroundColor=default;verticalAlign=top;aspect=fixed;imageAspect=0;image=data:image/png,iVBORw0KGgoAAAANSUhEUgAAAaUAAACoCAYAAABAO/HEAAAAAXNSR0IArs4c6QAAAARnQU1BAACxjwv8YQUAAAAJcEhZcwAADsMAAA7DAcdvqGQAACgkSURBVHhe7Z3PSx1J18fPvLzLdxeQOBBUJCsRcTEmIgljko0QxJULvYsh8pDFyHNjFg9PiMs75OFZaO4zbuTBMAuTRTbjOIKbTIQE0XExjiNZDUEloBkZ/wbfc6qqu6u7q3/c672ZNvl+oGNX/6wfp845dar65rNThpI4XqKp4QO6s1mmbtqm6tUF6lieo+GWpH1zX4TduUF60v6MZm+30snKJA1V3pgzCfSXaXV2hC6YpBOVtyrRtH5uEup9+xO0NdlrjmjU8Z9uZb+HsfMfRc5NvM2RXxdW/X5+fESHz8doYnGEFlR952CnSn3ftdX37ryEZCCO1GOFHma3QVabK7poOipH8v5H3MyRMjrbJOFaH6mvu0s0Pr9G5R772O80Pf+QBnpaw/eFyn4+5d/NES1PjdHazbR79TWVDZOskQEvXyaf6+Z4Lkozof6a3P8y6r6edyvCfVD1cbLzlFE3Jv952joki0zoXQ3K/3kj3SgJvuJro0UlABO0N2wJQg7FGOuUacYg8rz8Ci1M0NgiuPeJOF16V59yTO4UQvB8W7hyEVJ6mpPjbf63ly7wu5WALurjNl6Hz6zLBuF1lNX2hbrqL18+kxWMen/E8MfaxFPSrBCmuUPLdUn1lwdfqZ57+XeRxyjVSFI9qHZ5QYORdlXlcjiLnqyp4/JMdiJieEYr6XymUtbl3/squ45ihkfefe2Vfm/UeTAy2O6q+0Q5Cct9qPyJ5Mn/+eV/zd9kesq0NSs7oiyFXipvzpl9rsTX3DjccENXWSFYSKe+sy+evzlAY9RX6aLxkknWQsxzrMUQcH7nR6jv9TaVJ+do6zYfShSQbBKVxN1Bemp2Q0o5seMErF+Nn1dKcXKNhZMTofxK2aUu9XVEb2J1n8vTroHu0TINPDog8uqvHjaq8XzG4HozezbdXA8L3FmHpshdLlPHUUUs96n6OwvnWv4zPPoNW44CfINcBCJl18ZM9rhs3/EId3kt7MQoWTD7Z6KVhmf52bwXNhRSp1rWbrwepMrKFV1XnlPEdRdvE8kr38NGpFF98mMm1Sg5Pc1hbgi1wwpk/hatLaaNKrRSsI+JUD1dzFBQLIip7LyipyKseb0EUSz+tREBSTFQ4fLrDizCuLWpO3vUU0ny/hKNhGOklI0oRX4v76n3RbxufcwkGkXLCM0qxZyGrpNE7zupDny0x5hE9+QzmubnL+6MRDq9ac8EBe2UYYUnt7anGm7Xj0X+43WT3FYqr2ZfYZStM4QUCbN9SE5WvqFKJ/c12yA5SG5/ZsN2JAPC9bVNL+V+z5nYec7v5XLL+Z5nNMj16Bn2RGN+/DOtsWOwHnlfkszanD3/gnZinv6F7VULqUYp8DS5UHOviBaXVCV4hZYKk/ZoP+J/lHAc0d5bTl9zNIxNREHZnVYbCXPC4lCUbWSEktSxtXCQ6njaSwwUhxJmVul5OrRX/lD+FOJFzXBDT9Ky/1zPQNTQ6C1t1E4vaO+Y35XRuRLpbIsretexmtGKK15/cUOoUB2viwYfJLT9GUZKGu25xkk6HhBTFiaklMX5lv+MPNRE2PAKSg7UiCUPb6jiG3Ob+9TnUriZo8kDWmfHa7xzgao7c3HF3t9Gn5td92g57HykIg6A/F2UvOqwYODgvqc9axTafsld57vPuZ24Tbb8NjGOUI4mOnP+zyH/Y/4mIh2m7+orujF5nVMinDMqVFXdEQ+iiwb6ifbfSa8UpJG6clV2IipcEveoP789xyOUNVqd7tKdmvcl7dp0h9TKamtzhsb1I5gjFmbu2EpBSrl4k9CanVZblXbNHWFEmLxr2PMwnU3SSmFYz5la8eqEiT0/ct5HhC3pXJzDfUcYsWG46o/oArfDQqeUhw0yG1MN5/sRe9OliZDiCpHRZtH3aHR92PXmbeI9rlfYS3Wcq+6Y2xvA+ZX/IiH1Fs6jKod47tYx2RZyhTfbWDbZGI3eov27thw2HhWeFSSvy230ZG5bOzVK1u7Tvhgbyfv8CD1luegL9QuGr33CxuyO3SZqpHuLBup1RGtGR1fOwyhJSBkpBdbY8xZfquNcwOUyTT06oGmJrSvP+Wc6uc0dSXkVl2nBWdk/s0I/oA5xhZ1ecyS+7Rpqshc5xNdML3udVg9L8y8y0IpW4sQ+KeE7G6UAf9LKwA+uyL2yciviRcYIecamXo1X1dH/hvZEp/H9ahS3wd7YbB6lor3ygZsXTVrTXEOlEe9ttZ3bnQ3yHtd96Z2Xb7fQiyHLnosKz9VoHO2Viqlbk/JQbRdz03lUZ/bcfIzyfw5x1ZVnuCSsPH9AfcNV6jAh8JN3v/O/beq0OBSJoS8hIfwlqNFwqxgUcTze6PClvO8a9/lhHS6etetcnAnOg9IJ3C/WvGgNO2uy8CEIz7NcfbfE/fZZqr4Rzpz/cyoTKUbJCovElK81x9DHFr/ygtaPR2hABIK9ZXt+RIb5umLN0mdORztcKHzhwoSjPK8lFgoILTJgXB26ZrRS8iaJXSERlR9+V6pBSqWVOjqJ1sTTbv2ZKjzaGp+fyzm/pL3yxHBZk1GG5pLIha57V74zO1UKjexU9YXvPh75Fw/eqbwSFzqYnYZxmTrq7SORUGcsbNgzStP9YzQxdz3W592hL2PISzyyofg9NrtzOuwmC1b8OTXP+CRhnZe8qvknNm5TbFiDebl8judZ839eyRwp2St3Qp3BE/yWKzTYX6W1rSXaU0rVqyR9v0ymLpTGuNONqs56ok/WRbyRavMU05Rk1BtTStF46UppyEHnpK87Lu4pVeW5dV63vCITh/5Kpz5v76L1n76hKa67da7TkPcVQ5dXQgbTtKBCAKt1G8Szo71SzVP2/kqR0abdXlHFq5WLY1FIFGUQTAglJ+Ombs/GxyP/cQMf5C3maHmy3iiODri/LDlXmNY/p2TDzsODMq0Nv6Jdbg81l5Q0p2r6r/62i6iD66C6Y9VNyPmQSMQI3Znk+okM4JXsSrg+AV3fMlXAo2YVPeil2c0R//3t83V+Q1RT/s2x84h8p5TGb99+efrFve9P/zTp09PD0x/ufXn6+FeTFH59fPrFleh1AfKMez8eWvu/qGeoe1yb9Rz73ji/nD7m60N5iSHXfH36wx8mGUXynpBvj1ge/vj+9F7sme68ZN6r0uEy//nj10HaO6+2x6e/qSuSy51eX/Xgqj8tA5InnQednyB/ERz1pcrolyu8pbdnGnHZlPpwveMLPz92+RLuD8nHeZN/F7oMueQkJH+R7dtfzEVMQj8KybKFOm7fb1D17R13PDPpPo+k8768hc7ptr/ntYV61+HpnyFZj+SJSSqTUzZ8TB+J5c2Wv/i7PM6S//NGxkIHsxxyo0qLZvJ4d469Rx6SpnlmyejntV/S8yDiUUQnOtUEqI9ZzXRJVtIFE9nBJosNdHgies6b7D5Z4RGF3m0Q7GXKpL63yGFqiU7EgzEjmHC96Mnwwb5W5YGqvMlIy1oQICtz1MjL8u7UvFDn/9G6lFktGffqRzws8XL18s54G+j6CiHek6qTxkwI63LICEJWInlemswHyUKFJZpwvOdk64Wqr7WtyAIOGW34ZQu2+mQrGQnfhd6xXKYBc86by3J7ludf/htDfKGC2jJDR2ZhUUNWg+YjNqeq+qYsROL6Ltl1K8j84C1uX1M+NdJvVR+uNxSjH9xLstPkj2lI/mVEzXIhizTOARlGSSpMC6B8KCbCrr6styvWhFfG5yWkVKWhtIKrieARupG3Q6tlxnK9ju/HOoVZseXq3DJ8lo48VOEhNDfcGhuQvKva0rHzYspsQnrrMuGtL1Iog2hW2ajQi5c/VX9aUNTPComSXLxv8qcV0fi1W+Y99lBf7mGlKEvanQpBhwaDpal8vRrO83PmL1PlERtQcyYfxgAag6LnRzwFFQ1BiKxwffRHjA93qgp3KFm11q5WyyWtbCwCJrTqc57lXz/izMjkfprSNNihXB/5pkcU5qhLVpMZaLcW76iFDoGxTQubeUZf36/7f9+w/JqE1Mkcldr1VRrd/6a2rnD5HhI9kuc3Xjalz2hH1GWQ3BQp/38Fqd8pKUynE1SsVE3aDaoVJd7P9qjj0glmZ2iPPYK+0E/CGO+9/b1edcJeqygzWSGVOAHLilxQowhuzMzvNp200sDNEZp+wMqTO9Ts5hVuZPfErhCdU5J8Bl/kiyI2PxET6hRGQXsd1ng16+o4C8pPrIwfhOdZFHKdiQ173y7MbrYpg6PzJxOh6rCFCKFZgurPA4jghuc91MRwQxSS92wZEV2nl5y3ITWySetYWnn6q+VMOUVWlFJjZVmSOuQ60iTMKTBqccKl577s1ULinJIly1JP06bdwu3K5bXr79zKf7PR8mjnXxa72LIuCzOkvFkGTUbfwVyv7ms+qQsd4nlQ15v+EZJFn1fmHj3S9xwrfa1W9BOcVvIXmW8L4VxBqfHlTzlklnw4ifbhoPyNy792rjI+yS4OJoznQMdHg9h7GBX7dM4hmPu+/cVcY57x6/en9/w4bHLsNYjXhmOtbnSctvaY+qeDH4vOrMs4v31rt68nD/m2ez/+mhJfbxZpMf1a+ZjlX78/15zSR4PXngnznilE53nqm1M6K/Xn/7yR/YOsAAAAwAci8xcdAAAAgA8FjBIAAIDCAKMEAACgMMAoAQAAKAwwSgAAAAoDjBIAAIDCAKMEAACgMMAoAQAAKAwwSgAAAAoDjBIAAIDCAKMEAACgMMAoAQAAKAwwSgAAAAoDjBIAAIDCAKMEAACgMMAoAQAAKAwwSgAAAAoDjBIAAIDCAKMEAACgMMAoAQAAKAwwSgAAAAoDjBIAAIDCAKMEAACgMMAoAQAAKAwwSgAAAApD4Y3S7twg9c1tm1Sj2Kbq1UGq7pgkHdHyFL+Hj6VtUytH5vok9HOzrjtZmeTnVWnXpAEAAGgwUlK00vDsGm1tetszmu7nw6UZ69gazd5u1ZcDAABoCk0zSm/f7tHf7v5djTDkr6QBAACANJpmlP7171na2dEBKvkr6drQobCJRd5dvK9DaHYY73iJpuSYt00t0Yk5pdipBudk8+5Vx+/TU959elefC8J42ejQW/Bcd6jufSQcmB2qy/dcAAD4yDltEl9c+TK21cNv3/K93/5iUoZfH6vnPf7VpBl13b3vT/+UxB/fn94Lnf/l9LHkwX+OTtv3hzk8/eFe/L1//vg1v/fx6W8mnfieyLNV3qz7os+Jnveec+/HQ5MGAIBPg6aNlHp6us2eJpqunyNa/m6JBqafUbnHHGK6R8s0sFGlRRn1HB3QOnVRhz8F1Evl5TJN8179iwuO6PDSQ1pdHiW/JC1t1M5/9t9FRjWlmXDeJmdonJboiWv0wyO+J4tdNM35C2qol0rTXbReeY7FEACAT4qmGaV//mPKN0TyV9KN4T3tbRAr7LFQuKtvuMqGyNBznY3AG6oMm3MS2msZoeHJXkvx10ordfe00oWWVivUpsOAUQbaL5o9j4vU0c953n9v0hbKgFp5NdtQ5Y25AAAAPh2aZpQ6Ozvov/P/UavW5K+kG8n4vL1aLtj0CIVHRia9yiMO4hHUkGec1N31oZani8HYnzDvkxFQIxihBZPf8GaPngAA4OOnaUapeehRx9PXKd8uHS/Rslm8cOH2nFbw8yNsnA7oUB+ug216uWiMIY+40oiPiPToLj6CYlrbaICW6GUNiy0AAOBj5XwYpbcH1ginlYa/YgOzeD+0Qs0LqVV3jmj5UZUqd8Or6nZfLxHJt0fHOi3E5oLSOD6gff5j33OysuAM30neQu+ekzDfCN1xfefUwsdLshJwkpb9vHkf8+IDWwDAp8VnstrB7BcTWfrtzRf1l2l1doQuRI8rJARmhbtk6fddNkQe9r2MGDFv3kYWTYQ/jBWjMEaVzpnwqCj6ztIMrbYvqOfICKrcI8vY79M+P+/O/phezq4I502/+7LjmDWPJB/uZozIAADgY6P4RgkAAMAnwzmcUwIAAPCxAqMEAACgMMAoAQAAKAwwSgAAAAoDjBIAAIDCAKMEAACgMMAoAQAAKAwwSgAAAAoDjBIAAIDCAKMEAACgMMAoAQAAKAwwSgAAAAoDjBIAAIDCAKMEAACgMMAoAQAAKAwwSgAAAAoDjBIAAIDCAKMEAACgMBTeKO3ODVLf3LZJ5WWbqlcHaWrlyKTdnKxMUt/VKu2adC1IvrKeDwAAoDYwUqqH4yV6smj2AQAANIymGaW3b/fob3f/ziORQfVX0uebI1qe4lEbl6dvuErr5igAAIDG0TSj9K9/z9LOjg6MyV9J14YOwU3IiGTxvjYGVhhPh96MkeDNHUp7HxgStWWH6pKf20rDs2u0tSnbDI2bowAAABpH04ySZ5A8oulseqnMBmChxLulGW0MJnvVGTEcQ5XLtKAMBG/LZaLKGFV31Gmf9cp92vvKMyTyrCWaSDFMMk8Uei4bn3Z+LuaOAADgw9A0o9TT0232NNF0/RzR4aWHtLo8Sv4TW9qonf/sv4sYDzZm5R6zz3RPyghniZ64jIyaJ+qiaTZwQU57qTTdxcbteV2LIQAAANRG04zSP/8x5Rsi+SvpxtBK3T2tdKGl1Qq13aen5qzNQPtFs+dxkTr6eQS1/96kLY4OaJ3eUGU4CN3JNlR5Yy4AAADQbJpmlDo7O+i/8/9RYTD5K+lGoZaJi8HYn/DDbI2Z4xmxQnf2Zo+eAAAANIumGaXmsU0vF4nG59lYmDmmJOIjove0t+EaQTGtbTRAS/QyMi8FAADgw3E+jNLbAzoxu3R8QPv8x54/OllZcIbvZNWevfhhd07CfCN053arOWLRwsdLRE/vTtLysTnmLwOv7wNbAAAAtVF4o9Q9WqaBjSoNyRzP1BKdsPGYNavt/Hmf/QlaVQsSwivwBqaf0Y3X+hrZJhYlPJcciuueXOPn8KP9eaUxqnTKyj+E7wAA4EPw2Slj9gEAAIC/lHM4pwQAAOBjBUYJAABAYYBRAgAAUBhglAAAABQGGCUAAACFAUYJAABAYYBRAgAAUBhglAAAABQGGCUAAACFAUYJAABAYYBRAgAAUBhglAAAABQGGCUAAACFAUYJAABAYYBRAgAAUBhglAAAABQGGCUAAACFAUYJAABAYSi8UdqdG6S+uW2Tyss2Va8O0tTKkUm7OVmZpL6rVdo16byoPPHzva26Y04AAAA4Exgp1cQRLU8N0sTbMq1urtGWbMtl2r+bbQABAABk0zSj9PbtHv3t7t/VSEL+Svrcs/OcKhtdNP1ghC6YQ9QyQtPTXbReeV7ziAsAAECYphmlf/17lnZ2tJqWv5KuDR2Cm1jk3cX7OlRmhfF06C0IoblHKu/VyCa4LjtUl/bck3e/E/XfooEWcyDE77R3bHYBAADURdOMkmeQPKLpbHqpvLlGCyXeLc3oUNlkrzojhmOocpkWrBAaVcZiczvrlfu095W5Rj1riSZSDJPMFYWeuzlD7fzckMHbOKBDs+txuP+G/71MHU5jBQAAIC9NM0o9Pd1mTxNN188RHV56SKvLo+Q/saWN2vnP/rvIaImNWbnH7DPdkzM0Tkv0xDWqOubji100zQYuyGkvlazQ3IXbc2yoRulza0QkBlJGcwPTVn4AAADURdOM0j//MeUbIvkr6cbQSt09rXShpdUKtd2np+aszUD7RbPncZE6+nkEtf/epC2ODmid3lBlOAjdyTZUkVGQjbxb7+kRG59n4zd7u1UfBAAAUDdNM0qdnR303/n/qDCY/JV0o/CWZA/tT/hhtnFz7myMWKE7e7NHT4JehecZJC+sCAAA4Gw0zSg1j216uUg0Ps/GIsMYxEdE72lvwzWCYlrbaICW6GXmN0eyAGOMKvycPHkAAACQn/NhlN4e0InZpeMD2uc/9vzRycqCM3wnq/bsxQ+7cxLmG6E7rlBbCx8vET29O0nL/pyRHhH5q/Z2qrwvz5C5p7XQfBUAAICz89kpY/aLyfESTQ1XaV32+8u0OjtCF+xjQmmGVtsXVDhNRi/lHhnN3Kf96Wd0Z39MLytXSHguCMUFq/iix6x5JCs8J2HD4Flx9LtNAgAAQM0U3ygBAAD4ZDiHc0oAAAA+VmCUAAAAFAYYJQAAAIUBRgkAAEBhgFECAABQGGCUAAAAFAYYJQAAAIUBRgkAAEBhgFECAABQGGCUAAAAFAYYJQAAAIUBRgkAAEBhgFECAABQGGCUAAAAFAYYJQAAAIUBRgkAAEBhgFECAABQGGCUAAAAFAYYJQAAAIUBRgkAAEBhgFECAABQGGCUAAAAFAYYJQAAAIUBRgkAAEBhgFECAABQGGCU/iJ25wZpauXIpAAA558jWp76dPq16LC+uW2Tahz5jNJOlfqmlujEJP8KwhXwqTT+NlWvVmnXpHykPVzHkzheoqms62tq4zrqv9Y8R2hWB6gXlZ+6y6Prr7pjklmk1F2uekmr+xyyIe+ItbW6b5KWj026KUg9pb/DmbcYDnnNKe8nK5MZ7aSf3XdVtjHa+2qNZm+3mnNhtMzoTT3TykO+cnjUKD8WUp665FbJkJV31k0vF4nGr/Wq043ks1PG7CciBRnan6CtyToyIMI7XKV1k8ykv0yrsyN0wSQVUiF3f6fp5TkabvHSRAubZerWVyQijT3BlVcL4/NrVO7hHfWeJX2wJrp0Xo/OeD8L3+7WNzRRoaDsSiDHqLKhLkxgJFw3qg0O6E5afUlZv2uL170TnYe1m88SO2AU1Q40kyBDYnzv01OTisuAnF+gjuWHRI+yym4oJb2rAVhyMTCdUge1yr5PuP2k7p60u97j1YsnGy4y2iqHbLjen5ynBmPqWvpk6R3rocobcyIdvw8LrjLmlHel+0L9LyKrXl911L++18pvVCb9PFzhPL6nxWF+ri37DZIfH6su/bpJIaQ7I31Sl+1yLh1cK7mMUpIAhjJtY1e+qtgXNBhpONczVUF/uhURlGinigqFm6yKr7dThe/TeRPvKE8jK0wHaS8t0f7bLha4aHnj2E6BvP/ltZT3WR3w82inyE1yR9PUapQC5Tmw5cpTQicyuOXCRR4lfUaMoiAxRn0/O2U7m5xyYxm/EF7/Sjpv1We07hL7bATb2Mb6SuJ7PdLbs2Z85R1v/+x+rOs6lyNjiOqOsALW+odyKnYPVe9RpyxWrrz9qg69k9lmHo62S8hnWp3mNXwuko1SmpU2VvPQUdGxyk97jouIRfY6ke4kpCuDop60hap8M4rK3RBRgobx3l8LSQ2invU2qDvVmZRiq1J7nkaU8ry+HhbsKHb5zSHbUCUqipjgCbV3aCE6ekg1Kpl5q6UDNtsoGYfIcrrCCisvOcvkaBP1PuWgXORnfEP0IFLWUPvnUKCJ9e9u+4HpMrVX2CgnPTOPrNWNqX+TSsTSIYnt45T3JKQuvLpuoFGSunrE/k2uPNjU0icYJRNL6aN6c41Td0XqKlXmQ/JXJ2KUUvnj+9N7Vx6f/maSp78+Pv3i3venf/Lub99+efrFt7/o44bYMXX/16c//GHSBrnu3o+HJqX588ev/Wcr5F1877175lrr3T6h/B2e/uBdK7iuN7jer4iUN1qe8H36fY9/NclYWtDHvrgSPh59v3oPXxMc++X0MaflmNTBD39I2mqHJFSdRa5TZfKelbLF6spVHiFSzxbxejXliMiJT1S+oqjyBHlQMmLnWW3e/fKuuKw1BK8OHeXQeXKXwWvXWja/vh3yq97FefD+xrDaX73bu8bkP9aWWfUfaetQ+6p7I/Xtkr8mEpc3mxR5cNRtPrQ8x/tEFCP39W6m3c4kP4x3vxwTmUnqs1rHmAOK9PwnyYB6lksua+B/jW1K5GTrBa3336JpL/3ud6LO68piHupDTYK9ge+05b7xmkcVcqinTFuz/NfpjXle8hrNRr1kdX0wWhOP4Y7ZD42ExMN6YPbPjOdpdtF4qYto4w09vTsY8fLGqK9idg3rFX1MeTWb7LWovL/gM71U3mQvK1IWHztk2t9Gn+s9i4yQivKGzH4DOVlZyPZsE+E2dY107dG0kYWmYnmaW8rTNG3bqev8wu05WiX2Hq9OxsKe3ZNrfI1J+NTo6cY4oPWfeETeuUDVnbn4M1T7b9Oikuv71GfkW/Jf7nGPNtavWvUcqt+faY1HS+sbYzRFLJNcHumCwu5zlkOWu1h/c8pfrXj9R/YlnDxBezLnos5Fifcjrz+UN+fMgVqJvj/crvG+HMbvvybtHCkpnfWKbqT0y7PIj4xoVGRm04xwWm9R+zDX1b7Jh6dLpL3NNQFSdzr/amRkRTpOVpbo0DXi4uc9WZS6sstYO5lG6XD/DQ3cfOhnWKXbL5pUXt5QZXiQonLjFCY2gJpWGp5dU3u7r9UfhR466onHUEMeX6TS8i31njURCKk0z4gxs1zpNrtGVl2NPrtpdjwWg46tieR7Iyyg41/Jvzr/w7wnebZDPm5qCQuEDYwW+CLCirGuOS3N7pyEyso0/bZKe+bYh0Y7LdLRuC2jytdCDNNWn3RyS/6aRhvLFguwUiqTtOwMV3pKRSuwYJ6i1Vc2eTjZYoPfz0r25gwN/jRG1UtGPhukgJLx+o92Nm0lmZeQw5nA0NWq2QujjIq8X9WxOIVhQmEudU29Icvfae+Y9ZBpP9EVFXrYEPlRMnnbJJgLLSNch21ErGc8fSblmE3VN0fsAHEfZqd66OqB1ju3owbMwM+P6tl6yDBKetlf+7xXQUe095bT12qtsLinIQITnaDUFtkkHKjzEk+XEYPHEXuN/OdOSytXlFRKGwux1XkEJTQ5R0qu+G50DiFx0t14MCYVImbY3Iybv+ks0YTt2Qol8zcRxz1RuPyNRBuVGVpgb10ZzUg72IQ8daH0kI0RG9/ZK7Q3ZY7VhHtEkBv1/m/0aMiWtzRMpxSZ6psq00xnle6ntXnEmbFRSk92Nqpxxem1tbxv/oD6uE47jEJUkQw2Wh4nK98ojzpd8STBTsX+dbrTyQaILtLwgzJNPd9mZ683GCXJCtNHeedmzo7qfxmOjmcw3KOMv5CQDhDHcpQ6+t/QnqwEZ92oyyb511dkGtUs+Ym2udX/lNHNY/jMSFl0w8LNFzQxtaTamjw96EWWjvSzc82NZ5BulHZecaG58nzlLhkcoTve+D0PNVjPqGWPos6rPXtorSs48FC0RxXCmQcvDJEuuEqwzb7n+Y/PzyV0wGB0FyPvSCkX9YyUwvfESAnfJYYqNhwjXWZAxXrFgRGjwmX2Iiiudkj1MmXUzM/RiRqp3bOOc0uNdGslkJkRh2yZdi6NcJ1mLVrhLeIoacfMJISeUZruH6OJOcezuE21Ag/aT5SVhMNTlZ2RVXEq6BrLsxepkPaT8nCbPVkUeZL39dJC5yBVVq40eXRokeQ81tSHzop+174o9z5zKERYRylcOqCTNdC7I9p9zW2oRp6B8+42qjXIj8Fl3LxpghiRuhXng/q71P7nrH8X9idp/fgKEY+edATtZ3WOWtkulKo08d0Slc7ooKQbJQl/zbOyujqohLn07gV7RxN+TDmLTEvvCt8ZbEsvjRN+ZxAaS8YhFDUwMP2Q2ivfuJVxRjxZkWmEmkPUU24Eca8rGhIKkDZX83+qjbRJqO8D0xRiowfuEGav0BhPVS0nZ+erg+uwumPVrZq7sr7HywXXM49g1oZf0S7Lm5rL6WxTSmH3tR59RttPwuFJnnLg4IgzUKYS33dohc9V2z/SZfCciO5RbudhE50wx5qKa/RoEY02ZOuhgLisB5ys8Cij7zrvdVFHay8Nb86wgWAdps5GZTCso4J6DdN9bYTW747x6CXDaRRqkp9A/0mZFtgxSV86z0QdU+N83OGR27o53j05p1c18+BkYZafZX3YLHIwwPlb3BlJrMM8ZM4pKcO03MaVMUhDnByfz69onZZeVRw/R77T4Yagt23pSyLN9Qub1+mlt9xXfZQa77x+eE8ZgxTD5T8zQwhu3/I7WVrYTgt9hlB9yPCdUkpxoxwLkTnwOruntBJHfgnEHYgmkOgpFxc/7CTOilEMw7Oi1CZpqv8NrUs7Sbk2R0MdPRdqBKp37V8ocHvaeeG2n9Sj2tCCJmvhQ9ShXGcv+cbNYCFU06hjpJQdrtL9JWlUvvaIR4Oi4KfbWG9dphtK75jRuDEWuk/GpyoSkfvUQh65J9Ad2oCFndra5SdiFEOORT7UKEk5H8/NEY1ydjgfMV3HctiI0VK+nxlqaaN2s/v0db0/9SKNPqi/s2HlfUMOtY/S7AOiSuLPlbCQqbXzEWUvhnJTVuN4P82hny0ThDJ/Efr5EDFA5ucx/E0Jgij2yHG1OfLCz1ACoTw0+7x+b6ZBEkSYWICTt5kMgyTv8n4eRN4XuT82KtNCGbqmhi29A/91qBDueTJIonhYrtRcgazCDMFKbfkWy5UoJa53Va5WupB7lBRHFiJFESXnyXf+n7JJQBnAuLyojfPvXnWn+8nZ3q3lX81Hqn5o91lvO8McYiqi9HWfK5GsRk5a3cp1MH+ZKrL4JNWx0PUhc4Gi9BdKb6gic3XmnMzb+4vJPrD8BOjw+52oHlCjJ37fqHtwokZL3D6L3k8g+fo3q04CchglqUA9Yb21+Yym30aUvowALMGID5PFe5Fz8vEZV1xUeSohl5+PiWdcTZSz9ZcQQhztpSjlqby3Lhrsa1Xe4erNF1SxO4DyIHTHWZ3mhvUNBJennxubh7c6nWAYlBH0rtHGUJeXRyI8llrNMEhKkcaMRhTjdTnLKqsXpf74Paq+kt6nV8okrY4Ubyv6u1f6WH2/o1U4jg/Yiy0KnuKRX3wQuZmjkufZKXS/mNq6Ysm/4zfJIgo4fZJfL0zS7e/1u0H1CyCe/HrOhppTsJ7rbXnDXG4S5M/qn/Uh8i9LoFnhSdLqz+Ety7GrHf1JjNfH9ZzywM0ryU6R0hXukZKqF6Wkdejba4/uSc4361FttN/Tnqor+aEAbpOzyk/diFMb1zNqgUv/LRpIMnwtV2iQder+OymLDCokosX5F2P9KN9va2auvpPhsL2ceXj2GZGEhVau6BiqdU4IYqfSKSV8ZKx4qvX2hpqmI/NQVA23JfxgrhClfYM9igk2CK5pKLneEwQxAk0JIZlhul49Jp7RKO1xGf34tqsu6uzkXrjB7xRJowMVirTCcnJtyLvx2oF3lTG+SCdi+K26ksUlypu+ywfS3nVmrLxEiIYW02L7IaLl5zLGvpv5SwiHTwJe6T5lPGuv0+trtaKR/qPa/xLvRNpDhXF8y2v6p0kp/PZPX/qdFM4K+m8eHO0Zkz9GVsjKt471tIsstrLq4OSdPhwQzQPXq0NuEif2I+jPOQK8/iEoJ1me76g3JyF9IXqQ72sRoxVtFXFIn6lyqDxKeWU18VnlJ5LPXHXA705DhYTNfsBl6vDb1pb79+rfmjEf0TrI/nLZ9fVu3i965bp7iV9iN5DIl9vhL+G9Xyywv162vkZXX6d7x3nL+AJcfxn9gcqVifdLEjX+woH58j+9DMm/6OCiEV95FwtTtzWVyWuPD/drB0Xhg/X1BPK939MFJhnjkJ/ztft85q9iNIKzyU+uOkj6lQvHcf0rJpKf9H4QXJdfDyX/9h0AAADwgcF/8gcAAKAwwCgBAAAoDDBKAAAACgOMEgAAgMIAowQAAKAwwCgBAAAoDDBKAAAACgOMEgAAgMIAowQAAKAwwCgBAAAoDDBKAAAACgOMEgAAgMIAowQAAKAwwCgBAAAoCET/D9Lq4HH5fqLiAAAAAElFTkSuQmCC;" vertex="1" parent="1"><mxGeometry x="-230" y="270" width="325.77" height="130" as="geometry"/></mxCell><mxCell id="1fj6Q892M6bZ-ZogoULl-14" value="" style="endArrow=classic;html=1;rounded=0;strokeColor=#82B366;strokeWidth=2;exitX=0.5;exitY=0;exitDx=0;exitDy=0;entryX=0.25;entryY=0;entryDx=0;entryDy=0;fillColor=#d5e8d4;gradientColor=#97d077;" edge="1" parent="1" source="pdnPB8LrAb-UpEsbpM2R-7" target="pdnPB8LrAb-UpEsbpM2R-12"><mxGeometry width="50" height="50" relative="1" as="geometry"><mxPoint x="400" y="530" as="sourcePoint"/><mxPoint x="450" y="480" as="targetPoint"/><Array as="points"><mxPoint x="110" y="320"/><mxPoint x="416" y="320"/></Array></mxGeometry></mxCell><mxCell id="1fj6Q892M6bZ-ZogoULl-16" value="" style="endArrow=classic;html=1;rounded=0;strokeColor=#82B366;strokeWidth=2;exitX=0.75;exitY=0;exitDx=0;exitDy=0;entryX=1;entryY=0.5;entryDx=0;entryDy=0;" edge="1" parent="1" source="pdnPB8LrAb-UpEsbpM2R-12" target="pdnPB8LrAb-UpEsbpM2R-2"><mxGeometry width="50" height="50" relative="1" as="geometry"><mxPoint x="390" y="510" as="sourcePoint"/><mxPoint x="440" y="460" as="targetPoint"/><Array as="points"><mxPoint x="580" y="320"/><mxPoint x="580" y="210"/></Array></mxGeometry></mxCell></root></mxGraphModel></diagram></mxfile>